<svg id="Layer_1" data-name="Layer 1" xmlns="http://www.w3.org/2000/svg" viewBox="0 0 408.59 425.97"><title>01</title><path d="M286.92,514H122c-17.39,0-27-9.49-27-26.82q0-117.46,0-234.92c0-16.59,9.77-26.26,26.5-26.27,22.49,0,45-.14,67.48.1a14.83,14.83,0,0,0,11.73-4.8q63.8-64.14,127.87-128c7-7,10.17-7,17-.12l152.67,152.7c7.13,7.13,7.1,10.06-.18,17.34-6.6,6.6-13.13,13.26-19.84,19.74-1.94,1.88-2.28,3.36-1.31,6a33.48,33.48,0,0,1,2,10.67c0.23,12,.17,24,0,36,0,2.65.72,4.06,3.17,5.37,8.51,4.54,12.84,11.87,12.87,21.53,0.06,20.66,0,41.32,0,62,0,10.29-4.34,17.79-13.26,22.95a6.71,6.71,0,0,0-2.64,4.93c-0.22,12.16-.08,24.32-0.13,36.49-0.06,15-10.17,25.12-25.13,25.13q-83.47.06-166.95,0v0ZM463,450h-6.19c-27,0-54,0-81,0-14.55,0-24.77-10.4-24.79-25,0-19,.7-38-0.21-57-0.95-19.87,11.05-30.91,30-30.25,25.47,0.89,51,.23,76.49.23H463c0-12.21,0-23.84,0-35.47,0-10.58-2-12.53-12.46-12.53H127.4V274c6.06,0,11.73.17,17.38-.1a8.57,8.57,0,0,0,5.18-2.1c9.31-9.07,18.45-18.32,27.61-27.53A14.32,14.32,0,0,0,179,242H121.9c-8.41,0-10.89,2.54-10.9,11.09q0,63.75,0,127.49,0,53.25,0,106.49c0,8.43,2.44,10.86,11,10.91H390q31.75,0,63.5,0c5.63,0,9.27-2.68,9.36-7.53C463.12,477.16,463,463.86,463,450ZM252.56,235.76l1,1.36c1.58-.09,3.16-0.13,4.74-0.29q49.54-5.18,80,34.21a6.83,6.83,0,0,0,6.19,3c23.82-.08,47.64,0,71.46,0,1.24,0,2.48-.2,3.86-0.31a8.41,8.41,0,0,0-.38-1.82c-5.9-11.27-6-22.56-.59-34.09,0.53-1.14-.46-3.68-1.54-4.78-19.45-19.65-39.06-39.15-58.54-58.77-2-2-3.53-2.57-6.38-1.22a34.31,34.31,0,0,1-30.39.11c-2.95-1.37-4.56-1-6.78,1.23q-28.84,29.11-57.93,58A36.54,36.54,0,0,1,252.56,235.76ZM171.65,274c5.81,0,11.31-.21,16.78.07,3.48,0.18,5.83-1,8.25-3.47q56.78-57,113.74-113.87c5.28-5.27,8.34-5.4,14.18-.75,7.5,6,17.65,5.88,25.33-.24,5.24-4.17,8.9-4.09,13.54.54q35.9,35.85,71.74,71.76c5,5,5,8.13.45,13.81-6,7.48-6.25,16.87-.65,24.44,1.74,2.35,3.26,4.86,4.84,7.22,7.23,0.49,14.67,1.05,22.13,1.43a4.59,4.59,0,0,0,3-1.34c6.45-6.22,12.81-12.52,18.59-18.21L336.93,108.71ZM423,354c-15.48,0-31,0-46.44,0-6.55,0-9.5,2.91-9.51,9.4q-0.07,30.46,0,60.93c0,6.77,2.95,9.64,9.8,9.65q46.19,0,92.39,0c6.85,0,9.77-2.88,9.78-9.67q0.06-30.21,0-60.43c0-7.09-2.88-9.87-10.07-9.89Q445.95,354,423,354ZM319.56,273.81c-29.76-31.77-79.23-25.59-100,0h100Z" transform="translate(-95 -88.05)"/><path d="M399.81,376.08A21,21,0,1,1,400,418,21,21,0,0,1,399.81,376.08Z" transform="translate(-95 -88.05)"/></svg>