<svg id="Layer_2" data-name="Layer 2" xmlns="http://www.w3.org/2000/svg" viewBox="0 0 432.71 297.61"><title>02</title><path d="M375,225.83c-32.08,0-63.39,0-94.7,0-10,0-20.13-.8-29.93.65-26.59,3.92-44.21,25.15-44.37,52.12-0.07,11.16-.23,22.33.11,33.48,0.13,4.35-1.07,6.41-5.33,7.86-13.85,4.7-27.54,9.88-41.28,14.92-6.23,2.29-8.61,6.35-6.74,11.28s6.2,6.42,12.5,4.15c13.27-4.77,26.52-9.6,40.43-14.65,0.13,2.31.31,4,.31,5.77,0,13.66-.09,27.32.12,41,0.05,3.4-1,5-4.25,6.08-13.24,4.4-26.16,10-39.64,13.41-15.11,3.82-30.79-5.16-36.22-19.79q-22.62-61-44.56-122.33c-6.16-17.26,3.15-35.14,21-41.71q50.1-18.4,100.28-36.59l104.07-37.88c21.1-7.68,38.48.46,46.2,21.63q10.08,27.65,20.14,55.31C373.76,222.06,374.28,223.61,375,225.83Zm-188.9,55.84c-2-5.47-4.21-12.24-6.77-18.88-3-7.8-9.88-11.08-17.72-8.41q-12,4.09-23.91,8.7c-7.4,2.88-10.46,9.86-7.88,17.53,1.75,5.2,3.63,10.36,5.59,15.48,3,7.73,9.84,11.07,17.72,8.41s16-5.62,23.92-8.67C182.78,293.61,185.59,289.14,186.14,281.66Z" transform="translate(-79.61 -140.75)"/><path d="M368.19,438.14c-35.82,0-71.66-.54-107.47.21-20.9.44-36.8-15.13-36.34-37.1,0.8-37.81.16-75.64,0.22-113.47,0-6-.21-12.11.95-17.92,3.08-15.37,16.61-25.68,33.09-25.71q65.23-.1,130.47,0,44,0,88,0c21.11,0,35.07,14,35.07,35,0,41.16-.45,82.32.16,123.46,0.31,20.32-15.15,36-35.66,35.67C440.51,437.68,404.34,438.14,368.19,438.14Zm121.54-105H247.31c-0.1,1.89-.26,3.51-0.26,5.13q0,31.75,0,63.5c0,10.43,3.62,14,14.19,14q107.5,0,215,0c9.55,0,13.43-3.82,13.45-13.25q0-30.25,0-60.5C489.72,339.21,489.72,336.41,489.72,333.15Zm0-41.11c0-4.18,0-7.81,0-11.45-0.06-10.4-3.42-13.78-13.77-13.78H259.5c-6.95,0-11.37,2.79-12.06,8.64-0.63,5.36-.13,10.86-0.13,16.58h242.4Z" transform="translate(-79.61 -140.75)"/><path d="M334.5,370q-28,0-56,0c-6.47,0-10.42-3.26-10.23-8.29,0.18-4.69,4.13-7.55,10.47-7.55h110c1.17,0,2.34-.07,3.5,0,4.64,0.46,7.84,4,7.63,8.28a7.68,7.68,0,0,1-7.87,7.43c-8.16.15-16.33,0.06-24.49,0.06h-33v0Z" transform="translate(-79.61 -140.75)"/></svg>