<svg xmlns="http://www.w3.org/2000/svg" viewBox="0 0 84.04 51.7"><defs><style>.cls-1{fill:#fff;}</style></defs><title>Back Disttribution Storage</title><g id="Layer_2" data-name="Layer 2"><g id="Layer_1-2" data-name="Layer 1"><path d="M49.92.5A1.63,1.63,0,0,0,48.75,0H1.63A1.64,1.64,0,0,0,0,1.63V12a1.64,1.64,0,0,0,1.63,1.63H32.93A22.67,22.67,0,0,1,49.92.5Zm-42,8.55a2.25,2.25,0,1,1,2.25-2.25A2.25,2.25,0,0,1,7.92,9.06Z"/><path d="M31.55,17.7q.23-1,.53-1.9H1.63A1.64,1.64,0,0,0,0,17.43V27.78a1.64,1.64,0,0,0,1.63,1.63H18.91A15.67,15.67,0,0,1,31.55,17.7ZM7.92,24.85a2.25,2.25,0,1,1,2.25-2.25A2.25,2.25,0,0,1,7.92,24.85Z"/><path d="M18.46,33.13c0-.52,0-1,.08-1.54H1.63A1.64,1.64,0,0,0,0,33.22V43.57a1.64,1.64,0,0,0,1.63,1.63h22.5A15.63,15.63,0,0,1,18.46,33.13ZM7.92,40.65a2.25,2.25,0,1,1,2.25-2.25A2.25,2.25,0,0,1,7.92,40.65Z"/><path class="cls-1" d="M58,27.95c-1.6,0-2.47,1.89-2.47,4.27s.9,4.24,2.47,4.24,2.44-1.8,2.44-4.3C60.48,29.86,59.82,27.95,58,27.95Z"/><path class="cls-1" d="M73.74,24.27a20.29,20.29,0,0,0-40-4.36,14,14,0,1,0,7.63,26.82,16,16,0,0,0,23.88-.82h8.73a1.45,1.45,0,0,0,.85-.28,10.74,10.74,0,0,0-1-21.37Zm-32.49.22c0-3.78,2.06-5.9,4.56-5.9s4.39,2,4.39,5.63c0,4-2.09,6-4.53,6S41.29,28.3,41.26,24.49Zm5.87,13.62H45.5L56.59,18.6h1.63ZM58,38c-2.35,0-4.39-1.89-4.41-5.66s2.06-5.92,4.56-5.92,4.36,2,4.36,5.63C62.49,36,60.4,38,58,38Z"/><path class="cls-1" d="M48.17,24.35c0-2.29-.67-4.21-2.44-4.21-1.6,0-2.44,1.89-2.44,4.27s.84,4.24,2.44,4.24S48.17,26.84,48.17,24.35Z"/></g></g></svg>