<?xml version="1.0" encoding="UTF-8" standalone="no"?>
<svg width="14px" height="13px" viewBox="0 0 14 13" version="1.1" xmlns="http://www.w3.org/2000/svg" xmlns:xlink="http://www.w3.org/1999/xlink" xmlns:sketch="http://www.bohemiancoding.com/sketch/ns">
    <!-- Generator: Sketch 3.4.3 (16618) - http://www.bohemiancoding.com/sketch -->
    <title>Path 139</title>
    <desc>Created with Sketch.</desc>
    <defs></defs>
    <g id="Page-1" stroke="none" stroke-width="1" fill="none" fill-rule="evenodd" sketch:type="MSPage">
        <g id="5---Products" sketch:type="MSArtboardGroup" transform="translate(-1000.000000, -18.000000)" fill="#87888A">
            <g id="Header-set" sketch:type="MSLayerGroup">
                <g id="Group" transform="translate(965.000000, 2.000000)" sketch:type="MSShapeGroup">
                    <path d="M35,26 L37.2740723,24.0339496 C37.2740723,24.0339496 37.8611179,19.6137589 38.748631,17.9882737 C39.636144,16.3627885 41.9799021,16 41.9799021,16 L41.9799021,26 L35,26 L35,26 L35,26 Z M49,26 L46.7259277,24.0339496 C46.7259277,24.0339496 46.1388821,19.6137589 45.251369,17.9882737 C44.363856,16.3627885 42.0200979,16 42.0200979,16 L42.0200979,26 L49,26 Z M44,27 C44,28.1045695 43.1045695,29 42,29 C40.8954305,29 40,28.1045695 40,27 L44,27 Z" id="Path-139"></path>
                </g>
            </g>
        </g>
    </g>
</svg>