<?xml version="1.0" encoding="utf-8"?>
<!-- Generator: Adobe Illustrator 19.1.0, SVG Export Plug-In . SVG Version: 6.00 Build 0)  -->
<svg version="1.1" id="Layer_1" xmlns:sketch="http://www.bohemiancoding.com/sketch/ns"
	 xmlns="http://www.w3.org/2000/svg" xmlns:xlink="http://www.w3.org/1999/xlink" x="0px" y="0px" viewBox="-471 257 16 48"
	 style="enable-background:new -471 257 16 48;" xml:space="preserve">
<style type="text/css">
	.st0{fill:#293B79;}
	.st1{fill:#B2B3B5;}
</style>
<title>Group</title>
<desc>Created with Sketch.</desc>
<g id="Page-1" sketch:type="MSPage">
	<g id="_x31_---Empty" transform="translate(-1217.000000, -183.000000)" sketch:type="MSArtboardGroup">
		<g id="Group" transform="translate(1201.000000, 171.000000)" sketch:type="MSLayerGroup">
			<g transform="translate(16.000000, 12.000000)" sketch:type="MSShapeGroup">
				<path id="Rectangle-20" class="st0" d="M-469,257h3c1.1,0,2,0.9,2,2v1c0,1.1-0.9,2-2,2h-3c-1.1,0-2-0.9-2-2v-1
					C-471,257.9-470.1,257-469,257z"/>
				<path id="Rectangle-20-Copy-2" class="st0" d="M-469,264h3c1.1,0,2,0.9,2,2v1c0,1.1-0.9,2-2,2h-3c-1.1,0-2-0.9-2-2v-1
					C-471,264.9-470.1,264-469,264z"/>
				<path id="Rectangle-20-Copy" class="st0" d="M-460,257h3c1.1,0,2,0.9,2,2v1c0,1.1-0.9,2-2,2h-3c-1.1,0-2-0.9-2-2v-1
					C-462,257.9-461.1,257-460,257z"/>
				<path id="Rectangle-20-Copy-3" class="st0" d="M-460,264h3c1.1,0,2,0.9,2,2v1c0,1.1-0.9,2-2,2h-3c-1.1,0-2-0.9-2-2v-1
					C-462,264.9-461.1,264-460,264z"/>
			</g>
		</g>
	</g>
</g>
<g id="Page-1_1_" sketch:type="MSPage">
	<g id="_x31_---Empty_1_" transform="translate(-1217.000000, -183.000000)" sketch:type="MSArtboardGroup">
		<g id="Group_1_" transform="translate(1201.000000, 171.000000)" sketch:type="MSLayerGroup">
			<g transform="translate(16.000000, 12.000000)" sketch:type="MSShapeGroup">
				<path id="Rectangle-20_1_" class="st1" d="M-469,293h3c1.1,0,2,0.9,2,2v1c0,1.1-0.9,2-2,2h-3c-1.1,0-2-0.9-2-2v-1
					C-471,293.9-470.1,293-469,293z"/>
				<path id="Rectangle-20-Copy-2_1_" class="st1" d="M-469,300h3c1.1,0,2,0.9,2,2v1c0,1.1-0.9,2-2,2h-3c-1.1,0-2-0.9-2-2v-1
					C-471,300.9-470.1,300-469,300z"/>
				<path id="Rectangle-20-Copy_1_" class="st1" d="M-460,293h3c1.1,0,2,0.9,2,2v1c0,1.1-0.9,2-2,2h-3c-1.1,0-2-0.9-2-2v-1
					C-462,293.9-461.1,293-460,293z"/>
				<path id="Rectangle-20-Copy-3_1_" class="st1" d="M-460,300h3c1.1,0,2,0.9,2,2v1c0,1.1-0.9,2-2,2h-3c-1.1,0-2-0.9-2-2v-1
					C-462,300.9-461.1,300-460,300z"/>
			</g>
		</g>
	</g>
</g>
</svg>
