<svg xmlns="http://www.w3.org/2000/svg" viewBox="0 0 68.47 43.87"><defs><style>.cls-1,.cls-2{fill:#fff;}.cls-1{opacity:0.5;}.cls-3{fill:none;}</style></defs><title>Cloud Services</title><g id="Layer_2" data-name="Layer 2"><g id="Layer_1-2" data-name="Layer 1"><path class="cls-1" d="M41,13.2a5.69,5.69,0,0,0-6.41-4.58A10.74,10.74,0,0,0,14.5,5.91,6.47,6.47,0,0,0,6.67,9L3.2,9.74a.59.59,0,0,0-.32.18,4.36,4.36,0,0,0,2.2,8.4,8.23,8.23,0,0,0,9.71,6.27A7.38,7.38,0,0,0,20,23.49,8.46,8.46,0,0,0,32.3,20.72l4.54-.85a.77.77,0,0,0,.42-.23A5.69,5.69,0,0,0,41,13.2Z"/><path class="cls-2" d="M45.71,23.84a2,2,0,1,0,2.47,1.3A2,2,0,0,0,45.71,23.84Z"/><path class="cls-2" d="M35.32,27a3.07,3.07,0,1,0,3.06,3.08A3.06,3.06,0,0,0,35.32,27Z"/><path class="cls-3" d="M45.71,23.84a2,2,0,1,0,2.47,1.3A2,2,0,0,0,45.71,23.84Z"/><path class="cls-3" d="M35.32,27a3.07,3.07,0,1,0,3.06,3.08A3.06,3.06,0,0,0,35.32,27Z"/><path class="cls-2" d="M68.33,27a8.06,8.06,0,0,0-9.08-6.49,15.2,15.2,0,0,0-28.48-3.84,9.16,9.16,0,0,0-11.09,4.4l-4.91,1a.83.83,0,0,0-.45.26,6.17,6.17,0,0,0,3.11,11.9,11.66,11.66,0,0,0,13.75,8.88,10.45,10.45,0,0,0,7.31-1.56A12,12,0,0,0,56,37.69l6.43-1.21a1.09,1.09,0,0,0,.59-.32A8.06,8.06,0,0,0,68.33,27ZM41.66,31.61h-.54a.84.84,0,0,0-.79.56.81.81,0,0,0,.19.93l.41.4a.93.93,0,0,1,0,1.31c-.28.3-.58.58-.87.87a1,1,0,0,1-1.34,0l-.39-.39a.84.84,0,0,0-1-.19.86.86,0,0,0-.55.82c0,.19,0,.38,0,.57a.94.94,0,0,1-1,.94H34.74a1,1,0,0,1-1-.93c0-.2,0-.41,0-.61a.84.84,0,0,0-.56-.8.83.83,0,0,0-.94.17l-.39.39a1,1,0,0,1-1.38,0l-.81-.81a.94.94,0,0,1,0-1.38l.37-.36a.83.83,0,0,0,.2-.93.84.84,0,0,0-.79-.57h-.57a1,1,0,0,1-1-1c0-.35,0-.7,0-1.05a.93.93,0,0,1,.85-.94c.21,0,.42,0,.63,0a.87.87,0,0,0,.86-.55A.85.85,0,0,0,30,27l-.36-.37a.93.93,0,0,1,0-1.31c.29-.3.59-.59.89-.87a1,1,0,0,1,1.32,0l.41.4a.83.83,0,0,0,.94.18.84.84,0,0,0,.56-.79c0-.19,0-.37,0-.56a1,1,0,0,1,1-1h1a1,1,0,0,1,1,1c0,.19,0,.38,0,.57a.89.89,0,0,0,1.51.62l.38-.38a1,1,0,0,1,1.36,0l.84.84a.93.93,0,0,1,0,1.34l-.41.4a.81.81,0,0,0-.19.9.83.83,0,0,0,.74.58c.2,0,.41,0,.61,0a.87.87,0,0,1,.93.9c0,.4,0,.8,0,1.21A.89.89,0,0,1,41.66,31.61Zm8.41-5,.33.17a.6.6,0,0,1,.26.81c-.12.24-.24.47-.37.7a.63.63,0,0,1-.82.26l-.32-.16a.54.54,0,0,0-.63.07.55.55,0,0,0-.18.61c0,.12.08.23.11.35a.6.6,0,0,1-.42.77l-.68.21a.61.61,0,0,1-.76-.39c0-.12-.08-.25-.12-.38A.54.54,0,0,0,46,29.2a.53.53,0,0,0-.54.29l-.17.32a.62.62,0,0,1-.85.26l-.66-.34a.6.6,0,0,1-.26-.85l.16-.29A.53.53,0,0,0,43.6,28a.54.54,0,0,0-.59-.2l-.35.11a.61.61,0,0,1-.81-.44l-.2-.65a.6.6,0,0,1,.34-.74c.12-.05.26-.09.39-.13a.56.56,0,0,0,.42-.5.55.55,0,0,0-.33-.57l-.29-.16a.6.6,0,0,1-.25-.8c.12-.24.25-.47.38-.71a.62.62,0,0,1,.81-.25l.33.17a.53.53,0,0,0,.61-.07.54.54,0,0,0,.19-.6c0-.11-.07-.23-.11-.34a.62.62,0,0,1,.43-.8l.64-.2a.62.62,0,0,1,.8.4c0,.12.07.24.11.35a.57.57,0,0,0,1,.09l.16-.31a.62.62,0,0,1,.84-.27l.68.35a.6.6,0,0,1,.26.82l-.17.33a.52.52,0,0,0,.05.59.53.53,0,0,0,.56.22c.13,0,.25-.07.38-.11a.56.56,0,0,1,.75.37c.09.24.16.49.23.74a.57.57,0,0,1-.41.75l-.33.1a.54.54,0,0,0-.38.5A.52.52,0,0,0,50.08,26.57Z"/></g></g></svg>