<svg xmlns="http://www.w3.org/2000/svg" viewBox="0 0 57.84 43.24"><defs><style>.cls-1,.cls-3{fill:#fff;}.cls-1{opacity:0.5;}.cls-2{fill:#333;}</style></defs><title>Cloud Purchasing</title><g id="Layer_2" data-name="Layer 2"><g id="Layer_1-2" data-name="Layer 1"><path class="cls-1" d="M42,8.69a3.74,3.74,0,0,0-4.22-3A7.06,7.06,0,0,0,24.53,3.89a4.26,4.26,0,0,0-5.15,2l-2.28.48a.39.39,0,0,0-.21.12,2.87,2.87,0,0,0,1.44,5.53,5.42,5.42,0,0,0,6.39,4.12,4.86,4.86,0,0,0,3.4-.73,5.56,5.56,0,0,0,8.12-1.82l3-.56a.51.51,0,0,0,.27-.15A3.74,3.74,0,0,0,42,8.69Z"/><polygon class="cls-2" points="53.67 33.88 17.26 33.88 7.36 4.15 0 4.15 0 1.23 9.46 1.23 19.36 30.97 51.79 30.97 55.19 23.44 57.84 24.64 53.67 33.88"/><circle class="cls-2" cx="29.09" cy="39.4" r="3.84"/><circle class="cls-2" cx="43.56" cy="39.4" r="3.84"/><path class="cls-3" d="M55.84,16.28a5.3,5.3,0,0,0-6-4.27,10,10,0,0,0-19.8,1.55,6.92,6.92,0,1,0,6.15,12.3,7.88,7.88,0,0,0,11.5-2.58l4.23-.79a.72.72,0,0,0,.39-.21A5.3,5.3,0,0,0,55.84,16.28Z"/><path class="cls-3" d="M17.72,17.88a4.06,4.06,0,0,0,4.64,3.18,7.67,7.67,0,0,0,15.15-1.5,5.3,5.3,0,1,0-4.9-9.33,6,6,0,0,0-8.77,2.16l-3.23.67a.55.55,0,0,0-.29.17A4.06,4.06,0,0,0,17.72,17.88Z"/></g></g></svg>