<svg xmlns="http://www.w3.org/2000/svg" viewBox="0 0 112.4 76.18" width="50" height="50"><defs><style>.cls-1{fill:#307284;}</style></defs><title>Asset 19</title><g id="Layer_2" data-name="Layer 2"><g id="Layer_1-2" data-name="Layer 1"><path class="cls-1" d="M112.4,29.18v-4.5a7.51,7.51,0,0,0-7.5-7.5h-72a7.51,7.51,0,0,0-7.5,7.5v44a7.51,7.51,0,0,0,7.5,7.5h72a7.51,7.51,0,0,0,7.5-7.5V38.18c0-2.9-5-2.9-5,0v30.5a2.5,2.5,0,0,1-2.5,2.5h-72a2.5,2.5,0,0,1-2.5-2.5v-44a2.5,2.5,0,0,1,2.5-2.5h72a2.5,2.5,0,0,1,2.5,2.5v4.5C107.4,32.08,112.4,32.08,112.4,29.18Z"/><rect class="cls-1" x="25.4" y="35.18" width="87" height="13"/><rect class="cls-1" x="86.4" y="57.18" width="14" height="5"/><path class="cls-1" d="M86.49,10.56l-.82-4.42a7.51,7.51,0,0,0-8.74-6L6.14,13.22A7.51,7.51,0,0,0,.13,22L2,32.29,4.4,45.07,8.13,65.23a7.51,7.51,0,0,0,8.74,6l8.6-1.59a7.5,7.5,0,0,1-.07-1V64.58L16,66.32a2.5,2.5,0,0,1-2.91-2L9.32,44.16l16.08-3V28L7,31.38,5,21.05a2.5,2.5,0,0,1,2-2.91L77.84,5a2.5,2.5,0,0,1,2.91,2l.82,4.42C82.1,14.32,87,13.41,86.49,10.56Z"/></g></g></svg>
