<svg xmlns="http://www.w3.org/2000/svg" viewBox="0 0 86 82"><defs><style>.cls-1{fill:#307284;}.cls-2{fill:none;}</style></defs><title>Credit Notes_b</title><g id="Layer_2" data-name="Layer 2"><g id="Layer_1-2" data-name="Layer 1"><polygon class="cls-1" points="64.21 42.16 63.37 41.68 62.42 41.44 59.07 41.44 57.85 41.44 54.98 41.44 59.24 41.44 56.61 41.44 58.22 41.44 58.07 41.44 56.04 41.44 54.13 41.44 59.34 41.44 57.79 41.44 56.35 41.44 57.16 41.44 55.97 41.44 54.89 41.44 53.94 41.44 52.5 41.44 51.31 41.44 50.47 41.44 49.88 41.44 49.64 41.44 49.4 41.44 48.44 41.68 47.73 42.16 47.25 42.88 47.01 43.84 47.25 44.8 47.73 45.52 48.44 46 49.4 46.12 52.74 46.12 55.85 46.12 56.83 46.12 59.58 46.12 55.2 46.12 57.59 46.12 57.74 46.12 59.77 46.12 57.68 46.12 59.35 46.12 53.91 46.12 55.34 46.12 56.65 46.12 57.85 46.12 56.8 46.12 57.76 46.12 59.31 46.12 60.51 46.12 61.34 46.12 61.82 46.12 62.18 46.12 62.3 46.12 62.42 46.12 63.37 46 64.21 45.52 64.56 44.8 64.8 43.84 64.56 42.88 64.21 42.16"/><polygon class="cls-1" points="64.21 31.16 63.37 30.68 62.42 30.44 59.07 30.44 57.85 30.44 54.98 30.44 59.24 30.44 56.61 30.44 58.22 30.44 58.07 30.44 56.04 30.44 54.13 30.44 59.34 30.44 57.79 30.44 56.35 30.44 57.16 30.44 55.97 30.44 54.89 30.44 53.94 30.44 52.5 30.44 51.31 30.44 50.47 30.44 49.88 30.44 49.64 30.44 49.4 30.44 48.44 30.68 47.73 31.16 47.25 31.88 47.01 32.84 47.25 33.8 47.73 34.52 48.44 35 49.4 35.12 52.74 35.12 55.85 35.12 56.83 35.12 59.58 35.12 55.2 35.12 57.59 35.12 57.74 35.12 59.77 35.12 57.68 35.12 59.35 35.12 53.91 35.12 55.34 35.12 56.65 35.12 57.85 35.12 56.8 35.12 57.76 35.12 59.31 35.12 60.51 35.12 61.34 35.12 61.82 35.12 62.18 35.12 62.3 35.12 62.42 35.12 63.37 35 64.21 34.52 64.56 33.8 64.8 32.84 64.56 31.88 64.21 31.16"/><polygon class="cls-1" points="64.21 20.16 63.37 19.68 62.42 19.44 59.07 19.44 57.85 19.44 54.98 19.44 59.24 19.44 56.61 19.44 58.22 19.44 58.07 19.44 56.04 19.44 54.13 19.44 59.34 19.44 57.79 19.44 56.35 19.44 57.16 19.44 55.97 19.44 54.89 19.44 53.94 19.44 52.5 19.44 51.31 19.44 50.47 19.44 49.88 19.44 49.64 19.44 49.4 19.44 48.44 19.68 47.73 20.16 47.25 20.88 47.01 21.84 47.25 22.8 47.73 23.52 48.44 24 49.4 24.12 52.74 24.12 55.85 24.12 56.83 24.12 59.58 24.12 55.2 24.12 57.59 24.12 57.74 24.12 59.77 24.12 57.68 24.12 59.35 24.12 53.91 24.12 55.34 24.12 56.65 24.12 57.85 24.12 56.8 24.12 57.76 24.12 59.31 24.12 60.51 24.12 61.34 24.12 61.82 24.12 62.18 24.12 62.3 24.12 62.42 24.12 63.37 24 64.21 23.52 64.56 22.8 64.8 21.84 64.56 20.88 64.21 20.16"/><polygon class="cls-1" points="64.21 53.16 63.37 52.68 62.42 52.44 59.07 52.44 57.85 52.44 28.98 52.44 59.24 52.44 56.61 52.44 58.22 52.44 58.07 52.44 56.04 52.44 28.13 52.44 59.34 52.44 57.79 52.44 56.35 52.44 57.16 52.44 55.97 52.44 28.89 52.44 27.93 52.44 26.5 52.44 25.31 52.44 24.47 52.44 23.88 52.44 23.64 52.44 23.4 52.44 22.44 52.68 21.73 53.16 21.25 53.88 21.01 54.84 21.25 55.8 21.73 56.52 22.44 57 23.4 57.12 26.74 57.12 55.85 57.12 56.83 57.12 59.58 57.12 29.2 57.12 57.59 57.12 57.74 57.12 59.77 57.12 57.68 57.12 59.35 57.12 27.91 57.12 29.34 57.12 56.65 57.12 57.85 57.12 56.8 57.12 57.76 57.12 59.31 57.12 60.51 57.12 61.34 57.12 61.82 57.12 62.18 57.12 62.3 57.12 62.42 57.12 63.37 57 64.21 56.52 64.56 55.8 64.8 54.84 64.56 53.88 64.21 53.16"/><path class="cls-2" d="M9.93,5H8.73c-2,.43-2.94,2.36-3.37,4H9.5V7.5A7.45,7.45,0,0,1,9.93,5Z"/><path class="cls-2" d="M76.07,77h1.19c2-.43,2.94-2.36,3.37-4H76.5V74.5A7.45,7.45,0,0,1,76.07,77Z"/><path class="cls-2" d="M71.5,74.5V73H26.84a12.28,12.28,0,0,1-1.21,4H69.29A2.49,2.49,0,0,0,71.5,74.5Z"/><path class="cls-2" d="M60.38,5H16.72A2.49,2.49,0,0,0,14.5,7.5V9H59.16A12.28,12.28,0,0,1,60.38,5Z"/><path class="cls-1" d="M5.36,9c.43-1.64,1.36-3.57,3.37-4H9.93a7.51,7.51,0,0,1,6.5-5H8.5l-.41,0C1.69,1.13,0,8,0,11.53V14H9.5V9Z"/><path class="cls-1" d="M69.1,0l.57,0Z"/><path class="cls-1" d="M76.5,21c0-2.9-5-2.9-5,0v2h5Z"/><path class="cls-1" d="M76.5,12h-5C71.5,14.9,76.5,14.9,76.5,12Z"/><path class="cls-1" d="M69.1,0H17l-.57,0H68.11C68.5,0,68.82,0,69.1,0Z"/><path class="cls-1" d="M17.11,82H69l.58,0H17.89C17.6,82,17.34,82,17.11,82Z"/><path class="cls-1" d="M17,82h0Z"/><path class="cls-1" d="M69.5,5h-.22A2.49,2.49,0,0,1,71.5,7.5V12h5V7.5A7.51,7.51,0,0,0,69.66,0h.15Z"/><path class="cls-1" d="M16.5,77h.21A2.49,2.49,0,0,1,14.5,74.5V14h-5V74.5A7.51,7.51,0,0,0,16.33,82h-.14Z"/><path class="cls-1" d="M76.5,41c0,2.9-5,2.9-5,0V68h5Z"/><rect class="cls-1" x="9.5" y="3.03" width="5" height="11"/><path class="cls-1" d="M9.93,5h6.79L17,5H69l.28,0h.22l.31-5h-.15L69.1,0c-.27,0-.6,0-1,0H16.43A7.51,7.51,0,0,0,9.93,5Z"/><path class="cls-1" d="M76.5,41V23h-5V41C71.5,43.9,76.5,43.9,76.5,41Z"/><path class="cls-1" d="M16.94,82l-.61,0Z"/><path class="cls-1" d="M76.5,68v5h4.14c-.43,1.64-1.36,3.57-3.37,4H76.07a7.51,7.51,0,0,1-6.5,5H77.5l.41,0C84.31,80.87,86,74,86,70.47V68Z"/><path class="cls-1" d="M69,77a2.45,2.45,0,0,0,.29,0H25.63a12.28,12.28,0,0,0,1.21-4H71.5V68H22v2.5c0,2.55-.59,4.37-1.74,5.42A4.6,4.6,0,0,1,17.63,77h-.91A2.45,2.45,0,0,0,17,77Z"/><path class="cls-1" d="M76.07,77H69.29A2.45,2.45,0,0,1,69,77H17a2.45,2.45,0,0,1-.29,0H16.5l-.31,5h.14l.61,0h.17c.23,0,.49,0,.78,0H69.58A7.51,7.51,0,0,0,76.07,77Z"/><rect class="cls-1" x="71.5" y="67.97" width="5" height="5"/><path class="cls-1" d="M31.39,40.11V33.56a8.61,8.61,0,0,1-4.49-2.65,6.64,6.64,0,0,1-1.43-4.3,6.09,6.09,0,0,1,1.62-4.3,6.52,6.52,0,0,1,4.3-2V18.75h2.27V20.3a6.71,6.71,0,0,1,4,1.7,6.55,6.55,0,0,1,1.88,3.74l-4,.52a3.19,3.19,0,0,0-1.87-2.5v6.11q3.75,1,5.11,2.63a6.23,6.23,0,0,1,1.36,4.15,6.94,6.94,0,0,1-1.71,4.77,7.51,7.51,0,0,1-4.76,2.38V46.7H31.39V43.86a7.23,7.23,0,0,1-4.39-2,8.29,8.29,0,0,1-2.16-4.77l4.08-.44a5.17,5.17,0,0,0,.94,2.16A4.27,4.27,0,0,0,31.39,40.11Zm0-16.41a2.93,2.93,0,0,0-1.47,1.06,2.74,2.74,0,0,0-.55,1.66,2.62,2.62,0,0,0,.5,1.54,3.45,3.45,0,0,0,1.52,1.15Zm2.27,16.63a3.18,3.18,0,0,0,1.91-1.09,3.06,3.06,0,0,0,.73-2,2.77,2.77,0,0,0-.62-1.8,4,4,0,0,0-2-1.16Z"/></g></g></svg>
