<svg xmlns="http://www.w3.org/2000/svg" viewBox="0 0 76.7 67.63"><defs><style>.cls-1{fill:#ffe600;}.cls-2{fill:#777;}.cls-3{fill:none;}.cls-4{fill:#333;}.cls-5{fill:#fff;}</style></defs><title>Cross Product Disc</title><g id="Layer_2" data-name="Layer 2"><g id="Layer_1-2" data-name="Layer 1"><path class="cls-1" d="M44.79,44.47c-1.41,0-2.19,1.67-2.19,3.78S43.41,52,44.79,52,47,50.41,47,48.2C47,46.17,46.36,44.47,44.79,44.47Z"/><path class="cls-1" d="M36.05,41.29c0-2-.59-3.73-2.16-3.73-1.41,0-2.16,1.67-2.16,3.78s.75,3.75,2.16,3.75S36.05,43.5,36.05,41.29Z"/><path class="cls-2" d="M37.81,9a10.56,10.56,0,0,1,7,2.31h.71C44,9.66,41.12,8.52,37.81,8.52s-6.2,1.14-7.74,2.83h.71A10.56,10.56,0,0,1,37.81,9Z"/><path class="cls-3" d="M30.78,11.34H44.84a10.56,10.56,0,0,0-7-2.31A10.56,10.56,0,0,0,30.78,11.34Z"/><circle class="cls-3" cx="46.87" cy="11.34" r="1.53"/><circle class="cls-3" cx="28.71" cy="11.34" r="1.53"/><path class="cls-4" d="M35.65,19.72V3.1A3.11,3.11,0,0,0,32.55,0H3.1A3.11,3.11,0,0,0,0,3.1V56a3.11,3.11,0,0,0,3.1,3.1H24.52L22.76,32.57ZM28.71,9.81a1.53,1.53,0,1,1-1.53,1.53A1.53,1.53,0,0,1,28.71,9.81Z"/><path class="cls-4" d="M73.61,0H44.15a3.11,3.11,0,0,0-3.1,3.1V19.92L54.74,30.74l1.88,28.4h17A3.11,3.11,0,0,0,76.7,56V3.1A3.11,3.11,0,0,0,73.61,0ZM46.87,12.87a1.53,1.53,0,1,1,1.53-1.53A1.53,1.53,0,0,1,46.87,12.87Z"/><path class="cls-3" d="M44.87,43.11c-2.21,0-4,1.88-4,5.25s1.83,5,3.91,5,4-1.75,4-5.27C48.73,44.91,47.21,43.11,44.87,43.11Z"/><path class="cls-3" d="M37.85,41.18c0-3.19-1.54-5-3.88-5s-4,1.88-4,5.22,1.83,5,3.91,5S37.85,44.7,37.85,41.18Z"/><polygon class="cls-3" points="43.51 36.19 33.69 53.47 35.13 53.47 44.95 36.19 43.51 36.19"/><path class="cls-1" d="M53.29,32,38.13,20,24.44,33.67l2.24,34L55.54,66Zm-14.8-8.4A1.53,1.53,0,1,1,37,25.15,1.53,1.53,0,0,1,38.49,23.62ZM29.93,41.41c0-3.34,1.83-5.22,4-5.22s3.88,1.8,3.88,5c0,3.52-1.85,5.27-4,5.27S30,44.78,29.93,41.41Zm3.75,12.06,9.82-17.28h1.44L35.13,53.47Zm11.06-.1c-2.08,0-3.88-1.67-3.91-5s1.83-5.25,4-5.25,3.86,1.8,3.86,5C48.73,51.62,46.88,53.37,44.74,53.37Z"/><path class="cls-3" d="M29.42,14.09c0,1.31,1.95,4,5,7,2.12,2.06,3.69,3.13,4,3.14,1.07,0,7.83-7.19,7.83-10.11a3.51,3.51,0,0,0-.87-2.23h-15A3.51,3.51,0,0,0,29.42,14.09Z"/><path class="cls-5" d="M46.19,13.58c0,2.92-6.76,10.07-7.83,10.11-.3,0-1.87-1.08-4-3.14-3-2.93-5-5.67-5-7a3.51,3.51,0,0,1,.87-2.23h-.64a3.87,3.87,0,0,0-.75,2.23c0,1.79,2.72,5,5.27,7.5.33.32,3.28,3.13,4.2,3.13h0c1.58-.06,8.32-7.63,8.32-10.63A3.87,3.87,0,0,0,46,11.34h-.64A3.51,3.51,0,0,1,46.19,13.58Z"/></g></g></svg>