<?xml version="1.0" encoding="utf-8"?>
<!-- Generator: Adobe Illustrator 19.2.1, SVG Export Plug-In . SVG Version: 6.00 Build 0)  -->
<svg version="1.1" id="Layer_1" xmlns="http://www.w3.org/2000/svg" xmlns:xlink="http://www.w3.org/1999/xlink" x="0px" y="0px"
	 viewBox="0 0 16 16" style="enable-background:new 0 0 16 16;" xml:space="preserve">
<style type="text/css">
	.st0{fill:#0E67B2;}
</style>
<path class="st0" d="M12,3H1C0.4,3,0,3.2,0,3.8s0.4,0.7,1,0.7V14c0,1.1,0.9,2,2,2h7c1.1,0,2-0.9,2-2V4.5c0.6,0,1-0.2,1-0.7
	C13,3.2,12.6,3,12,3 M2.8,13.6V5.5c0-0.4,0.3-0.7,0.7-0.7S4.2,5,4.2,5.5v8.2c0,0.4-0.3,0.7-0.7,0.7S2.8,14.1,2.8,13.6 M5.8,13.6V5.5
	c0-0.4,0.3-0.7,0.7-0.7S7.2,5,7.2,5.5v8.2c0,0.4-0.3,0.7-0.7,0.7S5.8,14.1,5.8,13.6 M8.8,13.6V5.5c0-0.4,0.3-0.7,0.7-0.7
	s0.7,0.3,0.7,0.7v8.2c0,0.4-0.3,0.7-0.7,0.7S8.8,14.1,8.8,13.6 M2.7,2.5C2.4,2.3,2.4,2,2.5,1.7c0-0.1,1.2-1.7,4-1.7s3.9,1.7,4,1.7
	c0.2,0.3,0.1,0.6-0.2,0.8c-0.1,0.1-0.2,0.1-0.3,0.1c-0.2,0-0.4-0.1-0.5-0.2c0,0-0.9-1.3-3-1.3s-3,1.2-3,1.3C3.3,2.6,2.9,2.7,2.7,2.5
	"/>
</svg>
