<?xml version="1.0" encoding="utf-8"?>
<!-- Generator: Adobe Illustrator 19.2.1, SVG Export Plug-In . SVG Version: 6.00 Build 0)  -->
<svg version="1.1" id="Layer_1" xmlns="http://www.w3.org/2000/svg" xmlns:xlink="http://www.w3.org/1999/xlink" x="0px" y="0px"
	 viewBox="0 0 16 16" style="enable-background:new 0 0 16 16;" xml:space="preserve">
<style type="text/css">
	.st0{fill:#0E67B2;}
</style>
<path class="st0" d="M7.1,11.9c1.7-1.7,3.3-3.3,5.5-5.5c-0.3-0.7-0.7-1.2-1.3-1.7c-0.5-0.5-1.2-0.9-1.7-1.3C7.4,5.6,5.8,7.2,4.1,8.9
	c0.5,0.4,1.2,0.8,1.7,1.3C6.3,10.7,6.8,11.3,7.1,11.9"/>
<path class="st0" d="M4.2,11.8c-0.5-0.5-1.2-0.9-1.7-1.3c-0.3,0.3-0.4,0.4-0.4,0.4c-0.3,0.3-2.8,4.1-2,5c0.8,0.8,4.7-1.7,5-2
	c0,0,0.1-0.1,0.3-0.3C5.1,13,4.7,12.3,4.2,11.8"/>
<path class="st0" d="M13,3c0.5,0.5,0.9,1,1.3,1.7l0.1-0.1c0.9-0.9,2.2-2.2,0.7-3.7c-1.4-1.4-2.8-0.3-3.7,0.7l-0.1,0.1
	C11.8,2.1,12.5,2.5,13,3"/>
</svg>
