<?xml version="1.0" encoding="utf-8"?><!DOCTYPE svg PUBLIC "-//W3C//DTD SVG 1.1 Tiny//EN" "http://www.w3.org/Graphics/SVG/1.1/DTD/svg11-tiny.dtd"><svg version="1.1" baseProfile="tiny" id="Layer_1" xmlns="http://www.w3.org/2000/svg" xmlns:xlink="http://www.w3.org/1999/xlink"  x="0px" y="0px" width="71" height="62.8" viewBox="-37 -15.8 71 62.8" xml:space="preserve"><g> <g>  <path fill="#002561" d="M-12,0.6c-2.1,0.8-4.5-0.3-5.3-2.5c-0.8-2.1,0.3-4.5,2.5-5.3l22.7-8.4c2.1-0.8,4.5,0.3,5.3,2.5   c0.8,2.1-0.3,4.5-2.5,5.3L-12,0.6z"/>  <path fill="#002561" d="M-12,12.9c-2.1,0.8-4.5-0.3-5.3-2.5c-0.8-2.1,0.3-4.5,2.5-5.3L7.9-3.3C10-4,12.4-3,13.2-0.8   c0.8,2.1-0.3,4.5-2.5,5.3L-12,12.9z"/>  <path fill="#002561" d="M-12,25.2c-2.1,0.8-4.5-0.3-5.3-2.5c-0.8-2.1,0.3-4.5,2.5-5.3L7.9,9.2c2.1-0.8,4.5,0.3,5.3,2.5   c0.8,2.1-0.3,4.5-2.5,5.3L-12,25.2z"/> </g> <g>  <polygon fill="#002561" points="-37,35.4 -29.3,35.4 -29.3,37.4 -34.3,37.4 -34.3,39.2 -29.5,39.2 -29.5,41.4 -34.3,41.4    -34.3,43.2 -29.3,43.2 -29.3,45.3 -37,45.3   "/>  <polygon fill="#002561" points="-17.6,35.4 -14.8,35.4 -14.8,45.3 -17.6,45.3   "/>  <path fill="#002561" d="M-5,35.8l-0.2,2.1c-2.2-1.3-5.6-0.9-5.6,2.5c-0.1,3.3,3.5,3.8,5.7,2.7l0.1,2.2c-4,1.2-8.7,0-8.7-4.9   C-13.5,35.6-8.7,34.3-5,35.8L-5,35.8z"/>  <path fill="#002561" d="M3,35.6l-0.2,2.1c-1.4-0.8-4-0.8-4,0.4c0,1.8,4.6,0.5,4.6,4.3C3.4,46-1,46-3.9,45.2l0.2-2.2   c1.8,0.8,4.3,1,4.3-0.4c0-1.6-4.7-0.7-4.7-4.3C-3.9,35.4-0.3,34.6,3,35.6L3,35.6z"/>  <path fill="#002561" d="M11.2,35.6L11,37.6c-1.4-0.8-4-0.8-4,0.4c0,1.8,4.6,0.5,4.6,4.3c0,3.7-4.4,3.7-7.3,2.9L4.5,43   c1.8,0.8,4.3,1,4.3-0.4c0-1.6-4.7-0.7-4.7-4.3C4.3,35.4,7.9,34.6,11.2,35.6L11.2,35.6z"/>  <polygon fill="#002561" points="23.7,35.4 27.1,35.4 30.4,41.8 30.4,35.4 32.9,35.4 32.9,45.3 29.7,45.3 26.2,38.8 26.2,45.3    23.7,45.3   "/>  <path fill="#002561" d="M17.4,35.2c2.8,0,5,1.7,5,5.3c0,3.5-2.2,5.2-5,5.2s-5-1.7-5-5.2C12.5,36.8,14.6,35.2,17.4,35.2L17.4,35.2z    M15.2,40.4c0,1.5,0.7,3.3,2.2,3.3c1.5,0,2.2-1.7,2.2-3.3c0-1.4-0.7-3.2-2.2-3.3C15.9,37.2,15.2,38.8,15.2,40.4L15.2,40.4z"/>  <path fill="#002561" d="M-24.9,39.5h1.5c0.7,0,1.3-0.4,1.3-1.1c0-0.7-0.5-1.1-1.2-1.1h-1.5L-24.9,39.5L-24.9,39.5z M-27.4,35.4   h4.9c1.3,0,3.2,0.6,3.2,2.7c0,1.3-0.6,2.1-1.8,2.4c0.1,0,0.7,0.3,0.9,1l1.4,3.9h-2.9l-1-3c-0.2-0.5-0.5-0.8-1-0.8   c-0.4,0-1.1,0-1.1,0v3.8h-2.6V35.4L-27.4,35.4z"/> </g></g></svg>