<svg id="Layer_1" xmlns="http://www.w3.org/2000/svg" viewBox="-473 229 13 104"><style>.st0{fill:#293b79}.st1{fill:#00a9d4}.st2{fill:#d3d3d3}</style><title>Shape</title><g id="Page-1"><g id="Layout"><g id="Group"><g id="Group-_x2B_-Shape-_x2B_-Group"><path id="Shape" class="st0" d="M-472 229c-.6 0-1 .4-1 1 0 .2.1.4.2.6l.2.2 3.6 3.6v5.2c0 .6.3 1 .8 1.3l1.8 1c.1.1.3.1.5.1.6 0 1-.4 1-1v-5.6l4.6-4.6.1-.1c.1-.2.2-.4.2-.6 0-.6-.4-1-1-1l-11-.1z"/></g></g></g></g><g id="Page-1_1_"><g id="Layout_1_"><g id="Group_1_"><g id="Group-_x2B_-Shape-_x2B_-Group_1_"><path id="Shape_1_" class="st1" d="M-472 274.5c-.6 0-1 .4-1 1 0 .2.1.4.2.6l.2.2 3.6 3.6v5.2c0 .6.3 1 .8 1.3l1.8 1c.1.1.3.1.5.1.6 0 1-.4 1-1v-5.6l4.6-4.6.1-.1c.1-.2.2-.4.2-.6 0-.6-.4-1-1-1l-11-.1z"/></g></g></g></g><g id="Page-1_2_"><g id="Layout_2_"><g id="Group_2_"><g id="Group-_x2B_-Shape-_x2B_-Group_2_"><path id="Shape_2_" class="st2" d="M-472 320c-.6 0-1 .4-1 1 0 .2.1.4.2.6l.2.2 3.6 3.6v5.2c0 .6.3 1 .8 1.3l1.8 1c.1.1.3.1.5.1.6 0 1-.4 1-1v-5.6l4.6-4.6.1-.1c.1-.2.2-.4.2-.6 0-.6-.4-1-1-1l-11-.1z"/></g></g></g></g></svg>