<?xml version="1.0" encoding="utf-8"?>
<!-- Generator: Adobe Illustrator 19.1.0, SVG Export Plug-In . SVG Version: 6.00 Build 0)  -->
<svg version="1.1" id="Layer_1" xmlns="http://www.w3.org/2000/svg" xmlns:xlink="http://www.w3.org/1999/xlink" x="0px" y="0px"
	 viewBox="-471 273 16 16" style="enable-background:new -471 273 16 16;" xml:space="preserve">
<style type="text/css">
	.st0{fill:#87888A;}
</style>
<path class="st0" d="M-463,273c-4.4,0-8,3.6-8,8s3.6,8,8,8s8-3.6,8-8S-458.6,273-463,273z M-462.4,285.1c-0.2,0.2-0.4,0.3-0.7,0.3
	c-0.3,0-0.5-0.1-0.7-0.3c-0.2-0.2-0.3-0.4-0.3-0.8c0-0.3,0.1-0.5,0.3-0.7c0.2-0.2,0.4-0.3,0.7-0.3c0.3,0,0.5,0.1,0.7,0.3
	c0.2,0.2,0.3,0.4,0.3,0.7C-462.1,284.7-462.2,285-462.4,285.1z M-460.5,279.2c-0.1,0.2-0.3,0.4-0.4,0.6c-0.2,0.2-0.5,0.4-0.9,0.8
	c-0.1,0.1-0.2,0.2-0.3,0.3c-0.1,0.1-0.1,0.2-0.2,0.2c0,0.1-0.1,0.1-0.1,0.2c0,0.1,0,0.2-0.1,0.4c-0.1,0.4-0.3,0.6-0.6,0.6
	c-0.2,0-0.3-0.1-0.5-0.2c-0.1-0.1-0.2-0.3-0.2-0.5c0-0.3,0-0.6,0.1-0.8c0.1-0.2,0.2-0.4,0.4-0.6c0.2-0.2,0.4-0.4,0.6-0.6
	c0.2-0.2,0.4-0.4,0.5-0.5c0.1-0.1,0.2-0.2,0.3-0.3c0.1-0.1,0.1-0.3,0.1-0.4c0-0.3-0.1-0.5-0.3-0.7s-0.5-0.3-0.8-0.3
	c-0.4,0-0.7,0.1-0.9,0.3c-0.2,0.2-0.3,0.5-0.5,0.9c-0.1,0.4-0.4,0.6-0.7,0.6c-0.2,0-0.4-0.1-0.5-0.2c-0.1-0.1-0.2-0.3-0.2-0.5
	c0-0.3,0.1-0.7,0.3-1c0.2-0.3,0.5-0.6,1-0.9c0.4-0.2,0.9-0.3,1.5-0.3c0.5,0,1,0.1,1.4,0.3c0.4,0.2,0.7,0.5,0.9,0.8
	c0.2,0.3,0.3,0.7,0.3,1.1C-460.4,278.7-460.4,279-460.5,279.2z"/>
</svg>
