<svg xmlns="http://www.w3.org/2000/svg" viewBox="0 0 56.29 31.12"><defs><style>.cls-1{fill:#fff;}</style></defs><title>Included Data Transfer</title><g id="Layer_2" data-name="Layer 2"><g id="Layer_1-2" data-name="Layer 1"><path class="cls-1" d="M27.89,2.08a12,12,0,1,0,12,12A12,12,0,0,0,27.89,2.08Zm0,22.65A10.66,10.66,0,1,1,38.56,14.08,10.66,10.66,0,0,1,27.89,24.74Z"/><path class="cls-1" d="M27.89,2.08c-3.69,0-6.69,5.37-6.69,12s3,12,6.69,12,6.69-5.37,6.69-12S31.59,2.08,27.89,2.08Zm0,22.65C24.61,24.74,22,20,22,14.08S24.61,3.41,27.89,3.41s5.94,4.77,5.94,10.66S31.18,24.74,27.89,24.74Z"/><rect class="cls-1" x="27.24" y="2.75" width="1.31" height="22.47"/><rect class="cls-1" x="27.41" y="2.75" width="0.98" height="22.47" transform="translate(41.88 -13.91) rotate(90)"/><rect class="cls-1" x="27.41" y="-1.03" width="0.98" height="20.22" transform="translate(36.97 -18.82) rotate(90)"/><rect class="cls-1" x="27.41" y="8.77" width="0.98" height="20.22" transform="translate(46.78 -9.01) rotate(90)"/><path class="cls-1" d="M39.89,4.61A15.19,15.19,0,0,1,43,12h2.31V4.61Z"/><polygon class="cls-1" points="56.29 8.29 45.32 0 45.32 4.61 47.16 4.61 47.16 11.97 45.32 11.97 45.32 16.59 56.29 8.29"/><rect class="cls-1" x="45.32" y="4.61" width="1.84" height="7.36"/><path class="cls-1" d="M13.51,19.15H11v7.36h8.11A15.29,15.29,0,0,1,13.51,19.15Z"/><polygon class="cls-1" points="10.39 19.15 10.97 19.15 10.97 14.54 0 22.83 10.97 31.13 10.97 26.51 10.39 26.51 10.39 19.15"/><rect class="cls-1" x="10.4" y="19.15" width="0.58" height="7.36"/></g></g></svg>