<?xml version="1.0" encoding="utf-8"?>
<!-- Generator: Adobe Illustrator 23.0.1, SVG Export Plug-In . SVG Version: 6.00 Build 0)  -->
<svg version="1.1" id="Layer_1" xmlns="http://www.w3.org/2000/svg" xmlns:xlink="http://www.w3.org/1999/xlink" x="0px" y="0px"
	 viewBox="0 0 67 82" style="enable-background:new 0 0 67 82;" xml:space="preserve">
<style type="text/css">
	.st0{fill:#307284;}
	.st1{fill:none;stroke:#307284;stroke-width:3;stroke-miterlimit:10;}
</style>
<title>Invoice_b</title>
<path class="st0" d="M67,41V21c0-2.9-5-2.9-5,0v20C62,43.9,67,43.9,67,41z M62,12c0,2.9,5,2.9,5,0"/>
<path class="st0" d="M62,74.5c0,1.4-1.1,2.5-2.5,2.5h-52C6.1,77,5,75.9,5,74.5v-67C5,6.1,6.1,5,7.5,5h52C60.9,5,62,6.1,62,7.5V12h5
	V7.5C67,3.4,63.6,0,59.5,0h-52C3.4,0,0,3.4,0,7.5v67C0,78.6,3.4,82,7.5,82h52c4.1,0,7.5-3.4,7.5-7.5V23h-5V74.5z"/>
<path class="st1" d="M12.1,30.8h43v18h-43V30.8z"/>
<path class="st1" d="M38.6,30.8h8v18h-8V30.8z"/>
<polygon class="st0" points="55.8,56.2 55,55.7 54,55.4 46.6,55.4 50.8,55.4 48.2,55.4 49.8,55.4 45.7,55.4 50.9,55.4 47.9,55.4 
	48.7,55.4 41,55.4 40,55.7 39.3,56.2 38.8,56.9 38.6,57.8 38.8,58.8 39.3,59.5 40,60 41,60.1 51.2,60.1 46.8,60.1 51.4,60.1 
	49.3,60.1 50.9,60.1 45.5,60.1 49.4,60.1 48.4,60.1 54,60.1 55,60 55.8,59.5 56.2,58.8 56.4,57.8 56.2,56.9 "/>
<polygon class="st0" points="27.8,21.2 27,20.7 26,20.4 18.6,20.4 22.8,20.4 20.2,20.4 21.8,20.4 17.7,20.4 22.9,20.4 19.9,20.4 
	20.7,20.4 13,20.4 12,20.7 11.3,21.2 10.8,21.9 10.6,22.8 10.8,23.8 11.3,24.5 12,25 13,25.1 23.2,25.1 18.8,25.1 23.4,25.1 
	21.3,25.1 22.9,25.1 17.5,25.1 21.4,25.1 20.4,25.1 26,25.1 27,25 27.8,24.5 28.2,23.8 28.4,22.8 28.2,21.9 "/>
</svg>
