<?xml version="1.0" encoding="utf-8"?>
<!-- Generator: Adobe Illustrator 19.1.0, SVG Export Plug-In . SVG Version: 6.00 Build 0)  -->
<svg version="1.1" id="Layer_1" xmlns:sketch="http://www.bohemiancoding.com/sketch/ns"
	 xmlns="http://www.w3.org/2000/svg" xmlns:xlink="http://www.w3.org/1999/xlink" x="0px" y="0px" viewBox="-471 257 16 48"
	 style="enable-background:new -471 257 16 48;" xml:space="preserve">
<style type="text/css">
	.st0{fill:#293B79;}
	.st1{fill:#B2B3B5;}
</style>
<title>Rectangle 14 + Rectangle 14 Copy + Rectangle 14 Copy 2</title>
<desc>Created with Sketch.</desc>
<g id="Page-1" sketch:type="MSPage">
	<g id="_x31_---Empty" transform="translate(-1248.000000, -183.000000)" sketch:type="MSArtboardGroup">
		<g id="Group" transform="translate(1201.000000, 171.000000)" sketch:type="MSLayerGroup">
			
				<g id="Rectangle-14-_x2B_-Rectangle-14-Copy-_x2B_-Rectangle-14-Copy-2" transform="translate(47.000000, 12.000000)" sketch:type="MSShapeGroup">
				<path id="Rectangle-14" class="st0" d="M-469,257h12c1.1,0,2,0.4,2,1l0,0c0,0.6-0.9,1-2,1h-12c-1.1,0-2-0.4-2-1l0,0
					C-471,257.4-470.1,257-469,257z"/>
				<path id="Rectangle-14-Copy" class="st0" d="M-469,262h12c1.1,0,2,0.4,2,1l0,0c0,0.6-0.9,1-2,1h-12c-1.1,0-2-0.4-2-1l0,0
					C-471,262.4-470.1,262-469,262z"/>
				<path id="Rectangle-14-Copy-2" class="st0" d="M-469,267h12c1.1,0,2,0.4,2,1l0,0c0,0.6-0.9,1-2,1h-12c-1.1,0-2-0.4-2-1l0,0
					C-471,267.4-470.1,267-469,267z"/>
			</g>
		</g>
	</g>
</g>
<g id="Page-1_1_" sketch:type="MSPage">
	<g id="_x31_---Empty_1_" transform="translate(-1248.000000, -183.000000)" sketch:type="MSArtboardGroup">
		<g id="Group_1_" transform="translate(1201.000000, 171.000000)" sketch:type="MSLayerGroup">
			
				<g id="Rectangle-14-_x2B_-Rectangle-14-Copy-_x2B_-Rectangle-14-Copy-2_1_" transform="translate(47.000000, 12.000000)" sketch:type="MSShapeGroup">
				<path id="Rectangle-14_1_" class="st1" d="M-469,293h12c1.1,0,2,0.4,2,1l0,0c0,0.6-0.9,1-2,1h-12c-1.1,0-2-0.4-2-1l0,0
					C-471,293.4-470.1,293-469,293z"/>
				<path id="Rectangle-14-Copy_1_" class="st1" d="M-469,298h12c1.1,0,2,0.4,2,1l0,0c0,0.6-0.9,1-2,1h-12c-1.1,0-2-0.4-2-1l0,0
					C-471,298.4-470.1,298-469,298z"/>
				<path id="Rectangle-14-Copy-2_1_" class="st1" d="M-469,303h12c1.1,0,2,0.4,2,1l0,0c0,0.6-0.9,1-2,1h-12c-1.1,0-2-0.4-2-1l0,0
					C-471,303.4-470.1,303-469,303z"/>
			</g>
		</g>
	</g>
</g>
</svg>
