<?xml version="1.0" encoding="utf-8"?>
<!-- Generator: Adobe Illustrator 19.1.0, SVG Export Plug-In . SVG Version: 6.00 Build 0)  -->
<svg version="1.1" id="Layer_1" xmlns="http://www.w3.org/2000/svg" xmlns:xlink="http://www.w3.org/1999/xlink" x="0px" y="0px"
	 width="389.6px" height="518.6px" viewBox="0 0 389.6 518.6" enable-background="new 0 0 389.6 518.6" xml:space="preserve">
<path fill="#21255F" d="M0.1,467.1c0-21,12.7-40.2,32.6-47.8c31.9-12.1,64-23.6,96-35.3c62.8-23,125.5-46,188.3-69.1
	c24.6-9,48.7-2.5,62.8,17.2c20.1,28.1,8,66.7-25,78.8C260.2,445.7,165.5,480.1,71,515.1C36.3,528.1,0.6,503.8,0.1,467.1z"/>
<path fill="#21255F" d="M338.2,154.9c25,1.3,46.2,19,50.5,42.9c4.5,25.5-9.1,49.2-33.8,58.3c-60.7,22.4-121.5,44.6-182.2,66.8
	C139,335.3,105.3,347.7,71.5,360s-66.4-7.4-71.1-42.9c-2.9-21.7,10.7-44.5,32.3-52.7c26.2-10,52.7-19.5,79.1-29.2
	c68.4-25.1,136.8-50.2,205.2-75.1C323.9,157.8,331.2,156.6,338.2,154.9z"/>
<path fill="#21255F" d="M337.7,0c25.1,1,46.7,18.8,51,42.9c4.6,25.4-9.1,49.2-33.8,58.3c-65.4,24-130.8,48-196.2,71.9
	c-28.7,10.5-57.6,20.7-86.1,31.8c-33.2,12.9-64.4-7.3-71-35.7c-5.8-24.9,7.3-50.5,31.7-59.8c22.5-8.7,45.2-16.7,67.9-25
	C173,58.1,244.8,31.7,316.7,5.5C323.4,3,330.7,1.8,337.7,0z"/>
</svg>
