<?xml version="1.0" encoding="utf-8"?>
<!-- Generator: Adobe Illustrator 19.1.0, SVG Export Plug-In . SVG Version: 6.00 Build 0)  -->
<svg version="1.1" id="Layer_1" xmlns="http://www.w3.org/2000/svg" xmlns:xlink="http://www.w3.org/1999/xlink" x="0px" y="0px"
	 viewBox="-467 268 25 25" style="enable-background:new -467 268 25 25;" xml:space="preserve">
<style type="text/css">
	.st0{fill:#87888A;}
</style>
<g>
	<path class="st0" d="M-460.4,278c-1.3,0.5-2.7-0.2-3.1-1.4c-0.5-1.3,0.2-2.7,1.4-3.1l13.4-4.9c1.3-0.5,2.7,0.2,3.1,1.4
		c0.5,1.3-0.2,2.7-1.4,3.1L-460.4,278z"/>
	<path class="st0" d="M-460.4,285.2c-1.3,0.5-2.7-0.2-3.1-1.4c-0.5-1.3,0.2-2.7,1.4-3.1l13.4-4.9c1.3-0.5,2.7,0.2,3.1,1.4
		c0.5,1.3-0.2,2.7-1.4,3.1L-460.4,285.2z"/>
	<path class="st0" d="M-460.4,292.5c-1.3,0.5-2.7-0.2-3.1-1.4c-0.5-1.3,0.2-2.7,1.4-3.1l13.4-4.9c1.3-0.5,2.7,0.2,3.1,1.4
		c0.5,1.3-0.2,2.7-1.4,3.1L-460.4,292.5z"/>
</g>
</svg>
