<?xml version="1.0" encoding="utf-8"?>
<!-- Generator: Adobe Illustrator 19.1.0, SVG Export Plug-In . SVG Version: 6.00 Build 0)  -->
<svg version="1.1" id="Layer_1" xmlns="http://www.w3.org/2000/svg" xmlns:xlink="http://www.w3.org/1999/xlink" x="0px" y="0px"
	 viewBox="-471 273 16 16" style="enable-background:new -471 273 16 16;" xml:space="preserve">
<style type="text/css">
	.st0{fill:#87888A;}
</style>
<g>
	<g>
		<path class="st0" d="M-460.2,285.5c0,0-0.7,0.2-0.7-0.7c0-0.2,0-0.9,0-1.7h-4.1c-0.4,0-0.7-0.3-0.7-0.7v-2.7
			c0-0.4,0.3-0.7,0.7-0.7h4.1c0-0.8,0-1.5,0-1.7c0-0.9,0.7-0.7,0.7-0.7l5.1,4.4L-460.2,285.5z"/>
	</g>
	<path class="st0" d="M-461.1,287h-6.8c-0.6,0-1-0.4-1-1v-10c0-0.6,0.4-1,1-1h6.8v-2h-6.8c-1.7,0-3,1.3-3,3v10c0,1.7,1.3,3,3,3h6.8
		V287z"/>
</g>
</svg>
