<svg xmlns="http://www.w3.org/2000/svg" viewBox="0 0 64.4 39.39"><defs><style>.cls-1{fill:#fff;}.cls-2{fill:#333;}</style></defs><title>Mobile Data Trnsfer</title><g id="Layer_2" data-name="Layer 2"><g id="Layer_1-2" data-name="Layer 1"><path class="cls-1" d="M10.9,11.4a5.89,5.89,0,1,0,5.89,5.89A5.89,5.89,0,0,0,10.9,11.4Zm0,11.12a5.23,5.23,0,1,1,5.23-5.23A5.23,5.23,0,0,1,10.9,22.52Z"/><path class="cls-1" d="M10.9,11.4c-1.81,0-3.28,2.64-3.28,5.89s1.47,5.89,3.28,5.89,3.28-2.64,3.28-5.89S12.71,11.4,10.9,11.4Zm0,11.12C9.29,22.52,8,20.18,8,17.29s1.31-5.23,2.92-5.23,2.92,2.34,2.92,5.23S12.51,22.52,10.9,22.52Z"/><rect class="cls-1" x="10.58" y="11.73" width="0.64" height="11.03"/><rect class="cls-1" x="10.66" y="11.73" width="0.48" height="11.03" transform="translate(28.14 6.34) rotate(90)"/><rect class="cls-1" x="10.66" y="9.87" width="0.48" height="9.93" transform="translate(25.73 3.93) rotate(90)"/><rect class="cls-1" x="10.66" y="14.68" width="0.48" height="9.93" transform="translate(30.54 8.75) rotate(90)"/><rect class="cls-1" x="28.49" y="11.23" width="5.14" height="6.81" transform="translate(45.7 -16.42) rotate(90)"/><polygon class="cls-1" points="33.19 20.43 33.19 8.85 40.84 14.64 40.84 14.64 33.19 20.43"/><rect class="cls-1" x="31.24" y="21.34" width="5.14" height="6.81" transform="translate(9.06 58.55) rotate(-90)"/><polygon class="cls-1" points="30.8 18.96 30.8 30.53 23.15 24.75 23.15 24.75 30.8 18.96"/><path class="cls-2" d="M18.77,0H3A3,3,0,0,0,0,3V36.36a3,3,0,0,0,3,3H18.77a3,3,0,0,0,3-3V3A3,3,0,0,0,18.77,0Zm1.51,31.44A1.51,1.51,0,0,1,18.77,33H3a1.51,1.51,0,0,1-1.51-1.51V3A1.51,1.51,0,0,1,3,1.51H18.77A1.51,1.51,0,0,1,20.28,3Z"/><path class="cls-1" d="M53.5,11.4a5.89,5.89,0,1,0,5.89,5.89A5.89,5.89,0,0,0,53.5,11.4Zm0,11.12a5.23,5.23,0,1,1,5.23-5.23A5.23,5.23,0,0,1,53.5,22.52Z"/><path class="cls-1" d="M53.5,11.4c-1.81,0-3.28,2.64-3.28,5.89s1.47,5.89,3.28,5.89,3.28-2.64,3.28-5.89S55.31,11.4,53.5,11.4Zm0,11.12c-1.61,0-2.92-2.34-2.92-5.23s1.31-5.23,2.92-5.23,2.92,2.34,2.92,5.23S55.11,22.52,53.5,22.52Z"/><rect class="cls-1" x="53.18" y="11.73" width="0.64" height="11.03"/><rect class="cls-1" x="53.26" y="11.73" width="0.48" height="11.03" transform="translate(70.74 -36.25) rotate(90)"/><rect class="cls-1" x="53.26" y="9.87" width="0.48" height="9.93" transform="translate(68.33 -38.66) rotate(90)"/><rect class="cls-1" x="53.26" y="14.68" width="0.48" height="9.93" transform="translate(73.14 -33.85) rotate(90)"/><path class="cls-2" d="M61.37,0H45.62a3,3,0,0,0-3,3V36.36a3,3,0,0,0,3,3H61.37a3,3,0,0,0,3-3V3A3,3,0,0,0,61.37,0Zm1.51,31.44A1.51,1.51,0,0,1,61.37,33H45.62a1.51,1.51,0,0,1-1.51-1.51V3a1.51,1.51,0,0,1,1.51-1.51H61.37A1.51,1.51,0,0,1,62.88,3Z"/></g></g></svg>