<svg xmlns="http://www.w3.org/2000/svg" viewBox="0 0 69.74 49.72"><defs><style>.cls-1{fill:#fff;}.cls-2{fill:none;}</style></defs><title>Multi-Bucket Compute Discount</title><g id="Layer_2" data-name="Layer 2"><g id="Layer_1-2" data-name="Layer 1"><path class="cls-1" d="M41.65,17.69a1.58,1.58,0,0,0-1.36.87,6.15,6.15,0,0,0-.54,3,6.1,6.1,0,0,0,.54,3,1.61,1.61,0,0,0,1.4.86A1.56,1.56,0,0,0,43,24.63a6.1,6.1,0,0,0,.54-3,6.08,6.08,0,0,0-.55-3A1.59,1.59,0,0,0,41.65,17.69Z"/><path class="cls-1" d="M53.18,29.1A1.59,1.59,0,0,0,51.8,30a6.15,6.15,0,0,0-.54,3,6,6,0,0,0,.55,3,1.63,1.63,0,0,0,1.41.86A1.55,1.55,0,0,0,54.53,36a6.15,6.15,0,0,0,.54-3,6.1,6.1,0,0,0-.54-3A1.58,1.58,0,0,0,53.18,29.1Z"/><path class="cls-1" d="M69.54,24.44A22.34,22.34,0,0,0,49.82,5.17c-.67-.07-1.35-.11-2-.12H47.4A22.34,22.34,0,0,0,47,49.71h.4A22.36,22.36,0,0,0,64,42.36a22.36,22.36,0,0,0,5.77-15A22.52,22.52,0,0,0,69.54,24.44ZM38.93,26a7.38,7.38,0,0,1-1.09-4.44,6.82,6.82,0,0,1,1.08-4.15,3.21,3.21,0,0,1,2.65-1.44,3.38,3.38,0,0,1,2.75,1.44,6.9,6.9,0,0,1,1.12,4.3,7,7,0,0,1-1.12,4.28,3.33,3.33,0,0,1-2.72,1.47A3.24,3.24,0,0,1,38.93,26Zm4.52,12.87H41.63l9.75-22.89h1.79Zm12.37-1.47a3.34,3.34,0,0,1-2.71,1.47,3.24,3.24,0,0,1-2.66-1.47,7.38,7.38,0,0,1-1.09-4.43,6.82,6.82,0,0,1,1.08-4.15,3.2,3.2,0,0,1,2.63-1.44,3.4,3.4,0,0,1,2.77,1.43A6.87,6.87,0,0,1,57,33.06,7,7,0,0,1,55.82,37.35Z"/><path class="cls-2" d="M55,13.89H52.88L45.4,31.45a6,6,0,0,1,1.22,2.15Z"/><path class="cls-2" d="M41.34,27.42a3.6,3.6,0,0,0,1.83-.5,5.94,5.94,0,0,1-2.22.45A3.62,3.62,0,0,0,41.34,27.42Z"/><path class="cls-2" d="M54.86,27.33A3.77,3.77,0,0,0,51.76,29a8,8,0,0,0-1.27,4.89,8.7,8.7,0,0,0,1.29,5.22,3.81,3.81,0,0,0,3.14,1.73,3.94,3.94,0,0,0,3.2-1.74,8.19,8.19,0,0,0,1.33-5.06A8.09,8.09,0,0,0,58.12,29,4,4,0,0,0,54.86,27.33Z"/><path class="cls-2" d="M45,16.37a5,5,0,0,0-.48-.79,4,4,0,0,0-3.24-1.69,3.53,3.53,0,0,0-2.26.82H40.9A6,6,0,0,1,45,16.37Z"/><path d="M44.61,1.3A6,6,0,0,0,40.9,0H6A6,6,0,0,0,0,6v.68a6,6,0,0,0,6,6H26.35l.37-.54A26.31,26.31,0,0,1,44.61,1.3ZM7.37,8.43A2.09,2.09,0,1,1,9.46,6.34,2.09,2.09,0,0,1,7.37,8.43Z"/><path d="M25.11,14.7H6a6,6,0,0,0-6,6v.68a6,6,0,0,0,6,6H21.85a26.42,26.42,0,0,1,.58-5.52A26.1,26.1,0,0,1,25.11,14.7ZM7.37,23.13A2.09,2.09,0,1,1,9.46,21,2.09,2.09,0,0,1,7.37,23.13Z"/><path d="M21.93,29.41H6a6,6,0,0,0-6,6v.68a6,6,0,0,0,6,6H26.35a26,26,0,0,1-4.43-12.68ZM7.37,37.84a2.09,2.09,0,1,1,2.09-2.09A2.09,2.09,0,0,1,7.37,37.84Z"/></g></g></svg>