<svg xmlns="http://www.w3.org/2000/svg" viewBox="0 0 82.01 81.49"><defs><style>.cls-1{fill:#fff;}.cls-2{fill:#444;}</style></defs><title>Multi Bucket Data</title><g id="Layer_2" data-name="Layer 2"><g id="Layer_1-2" data-name="Layer 1"><path class="cls-1" d="M40.5,19A21.87,21.87,0,1,0,62.37,40.91,21.87,21.87,0,0,0,40.5,19Zm0,41.31A19.44,19.44,0,1,1,59.95,40.91,19.44,19.44,0,0,1,40.5,60.35Z"/><path class="cls-1" d="M40.5,19c-6.73,0-12.19,9.79-12.19,21.87S33.77,62.77,40.5,62.77,52.7,53,52.7,40.91,47.24,19,40.5,19Zm0,41.31c-6,0-10.84-8.7-10.84-19.44S34.52,21.46,40.5,21.46s10.84,8.7,10.84,19.44S46.49,60.35,40.5,60.35Z"/><rect class="cls-1" x="39.31" y="20.25" width="2.39" height="40.98"/><rect class="cls-1" x="39.61" y="20.25" width="1.78" height="40.98" transform="translate(81.25 0.24) rotate(90)"/><rect class="cls-1" x="39.61" y="13.36" width="1.78" height="36.87" transform="translate(72.3 -8.71) rotate(90)"/><rect class="cls-1" x="40.15" y="31.23" width="1.78" height="36.87" transform="translate(90.71 8.63) rotate(90)"/><rect class="cls-2" x="33.33" y="70.74" width="4.88" height="6.47"/><polygon class="cls-2" points="41.27 71.96 30.27 71.96 35.77 64.69 35.77 64.69 41.27 71.96"/><rect class="cls-2" x="42.93" y="68.13" width="4.88" height="6.47" transform="translate(90.73 142.73) rotate(180)"/><polygon class="cls-2" points="39.87 74.22 50.86 74.22 45.37 81.49 45.37 81.49 39.87 74.22"/><rect class="cls-2" x="33.33" y="6.05" width="4.88" height="6.47"/><polygon class="cls-2" points="41.27 7.27 30.27 7.27 35.77 0 35.77 0 41.27 7.27"/><rect class="cls-2" x="42.93" y="3.45" width="4.88" height="6.47" transform="translate(90.73 13.36) rotate(180)"/><polygon class="cls-2" points="39.87 9.53 50.86 9.53 45.37 16.8 45.37 16.8 39.87 9.53"/><rect class="cls-2" x="5.08" y="31.24" width="4.88" height="6.47" transform="translate(41.99 26.96) rotate(90)"/><polygon class="cls-2" points="9.53 39.97 9.53 28.98 16.8 34.48 16.8 34.48 9.53 39.97"/><rect class="cls-2" x="7.68" y="40.84" width="4.88" height="6.47" transform="translate(-33.95 54.2) rotate(-90)"/><polygon class="cls-2" points="7.27 38.58 7.27 49.57 0 44.07 0 44.07 7.27 38.58"/><rect class="cls-2" x="70.28" y="31.24" width="4.88" height="6.47" transform="translate(107.19 -38.24) rotate(90)"/><polygon class="cls-2" points="74.74 39.97 74.74 28.98 82.01 34.48 82.01 34.48 74.74 39.97"/><rect class="cls-2" x="72.89" y="40.84" width="4.88" height="6.47" transform="translate(31.25 119.4) rotate(-90)"/><polygon class="cls-2" points="72.47 38.58 72.47 49.57 65.2 44.07 65.2 44.07 72.47 38.58"/></g></g></svg>