<svg xmlns="http://www.w3.org/2000/svg" viewBox="0 0 82.11 67.21"><defs><style>.cls-1{fill:#fff;}</style></defs><title>On Demand Computing</title><g id="Layer_2" data-name="Layer 2"><g id="Layer_1-2" data-name="Layer 1"><path class="cls-1" d="M74.23,21.12A9.1,9.1,0,0,0,64,13.79a17.18,17.18,0,0,0-34,2.66A11.88,11.88,0,1,0,40.52,37.57a13.53,13.53,0,0,0,19.74-4.43l7.26-1.36a1.23,1.23,0,0,0,.66-.36A9.1,9.1,0,0,0,74.23,21.12Z"/><path class="cls-1" d="M8.75,23.86a7,7,0,0,0,8,5.45,13.17,13.17,0,0,0,26-2.57,9.11,9.11,0,1,0-8.42-16,10.37,10.37,0,0,0-15.06,3.7l-5.55,1.16a.94.94,0,0,0-.5.29A7,7,0,0,0,8.75,23.86Z"/><polygon points="24.16 61.04 0 61.04 3.29 57.55 20.87 57.55 24.16 61.04"/><path d="M3.29,46.22V57H20.87V46.22ZM20.1,56.29h-16V46.91h16Z"/><polygon points="57 67.21 25.98 67.21 30.2 62.72 52.78 62.72 57 67.21"/><path d="M30.2,48.19V62H52.78V48.19ZM51.79,61.11H31.19v-12h20.6Z"/><polygon points="82.11 61.04 57.95 61.04 61.24 57.55 78.82 57.55 82.11 61.04"/><path d="M61.24,46.22V57H78.82V46.22ZM78.05,56.29H62V46.91h16Z"/><rect class="cls-1" x="41.49" y="40.12" width="1.61" height="6.1"/><rect class="cls-1" x="62.5" y="35.16" width="1.61" height="6.1" transform="translate(-10.62 39.74) rotate(-32.3)"/><rect class="cls-1" x="15.41" y="35.16" width="1.61" height="6.1" transform="translate(9.51 79.18) rotate(-147.7)"/></g></g></svg>