<svg id="Layer_1" xmlns="http://www.w3.org/2000/svg" viewBox="-451 274 56 14"><style>.st0{fill:#00a9d4}.st1{fill:#b2b3b5}</style><title>Shape Copy 7</title><g id="Page-1"><g id="_x32_---Canvas"><g id="_x31_--_x2F_--2-_x2B_-Shape-_x2B_-Shape-Copy-7"><path id="Shape-Copy-7" class="st0" d="M-444 288c-3.9 0-7-3.1-7-7s3.1-7 7-7 7 3.1 7 7-3.1 7-7 7zm3.7-7.7l-3-3c-.2-.2-.5-.3-.7-.3s-.5.1-.7.3c-.4.4-.4 1 0 1.4l1.3 1.3h-3.6c-.6 0-1 .4-1 1s.4 1 1 1h3.6l-1.3 1.3c-.4.4-.4 1 0 1.4s1 .4 1.4 0l3-3c.2-.2.3-.4.3-.7 0-.3-.1-.5-.3-.7z"/></g></g></g><g id="Page-1_1_"><g id="_x32_---Canvas_1_"><g id="_x31_--_x2F_--2-_x2B_-Shape-_x2B_-Shape-Copy-7_1_"><path id="Shape-Copy-7_1_" class="st1" d="M-402 288c-3.9 0-7-3.1-7-7s3.1-7 7-7 7 3.1 7 7-3.1 7-7 7zm3.7-7.7l-3-3c-.2-.2-.5-.3-.7-.3s-.5.1-.7.3c-.4.4-.4 1 0 1.4l1.3 1.3h-3.6c-.6 0-1 .4-1 1s.4 1 1 1h3.6l-1.3 1.3c-.4.4-.4 1 0 1.4s1 .4 1.4 0l3-3c.2-.2.3-.4.3-.7 0-.3-.1-.5-.3-.7z"/></g></g></g></svg>