<svg xmlns="http://www.w3.org/2000/svg" viewBox="0 0 42.1 79.03"><defs><style>.cls-1{fill:#ffe600;}.cls-2{fill:none;stroke:#231c1c;stroke-miterlimit:10;}</style></defs><title>Reseller Rates</title><g id="Layer_2" data-name="Layer 2"><g id="Layer_1-2" data-name="Layer 1"><path class="cls-1" d="M39.06,30.83,18.54,14.58,0,33.06,3,79,42.1,76.8ZM18.75,18.78A2.19,2.19,0,1,1,16.57,21,2.19,2.19,0,0,1,18.75,18.78Zm-.19,45.28a2.79,2.79,0,0,1-2.63,1.42,1.25,1.25,0,0,1-1-1.64c.06-.25.14-.5.25-.87-.8.11-1.5.62-2.21,0s-.26-1.32-.24-2c-.71.11-1.36.6-2,0s-.33-1.28-.22-2.05l-.83.19A1.21,1.21,0,0,1,8,57.89a2.37,2.37,0,0,1,2.59-2.55c.91.21,1.23.7,1.32,2,1.65.12,1.9,0,2.28,2,1.89.2,2.19.5,2.2,2.26l.49,0A1.66,1.66,0,0,1,18.56,64.05Zm12.22-6.53a1.43,1.43,0,0,1-2.06,0c-.64-.54-1.26-1.12-1.92-1.64a2.24,2.24,0,0,0-.67-.25,1.91,1.91,0,0,0,.27.65c.63.63,1.32,1.19,1.95,1.82a1.32,1.32,0,0,1-.44,2.3A2,2,0,0,1,26.49,60c-.8-.57-1.5-1.28-2.25-1.91a5.38,5.38,0,0,0-.7-.43l-.15.14a3.54,3.54,0,0,0,.42.65c.55.54,1.13,1,1.69,1.57.82.75.94,1.46.37,2.12s-1.39.57-2.15-.11-1.25-1.13-1.89-1.67a6.53,6.53,0,0,0-.74-.48l-.16.15a2.66,2.66,0,0,0,.35.6c.51.51,1.06,1,1.59,1.47a1.34,1.34,0,0,1,.19,2,1.38,1.38,0,0,1-2,0,1.56,1.56,0,0,1-.65-1.19,3.18,3.18,0,0,0-2-2.82c-.25-.11-.43-.39-.64-.59L16.14,58a4.22,4.22,0,0,1-.75-.69c-.48-.78-1.32-1.07-2-1.62s-.92-1.38-1.73-1.75a3.7,3.7,0,0,0-4.65,1.46c-.15.25-.26.51-.41.8l-1.72-.36-.74-11.1,3.33.89A3.67,3.67,0,0,0,10.85,45a16.07,16.07,0,0,1,4.9-2.68,3.52,3.52,0,0,1,3.26.77c-1.32.91-2.67,1.79-4,2.75a3.2,3.2,0,0,0-1.19,3.65,3.27,3.27,0,0,0,3,2.29,3.38,3.38,0,0,0,1.51-.37c1.08-.52,2.12-1.12,3.18-1.69a2,2,0,0,1,2.69.28q3.13,2.72,6.25,5.46A1.34,1.34,0,0,1,30.78,57.53Zm3.54-3.45a2.61,2.61,0,0,1-2.54-.6c-2.17-1.9-4.37-3.78-6.55-5.67A2.28,2.28,0,0,0,22,47.53c-1.3.77-2.59,1.57-3.88,2.35a1.79,1.79,0,1,1-1.9-3l7-4.59c1.55-1,2.06-1,3.58.06,1,.72,2,1.47,3,2.24a2.37,2.37,0,0,0,2.36.42c1.5-.5,3-.93,4.53-1.38l.65,9.8C36.33,53.63,35.32,53.83,34.32,54.08Z"/><path class="cls-2" d="M18.92,19.53c.83-6.47,5.62-5,2.3-10.09-3-4.62-6.42-6.16-2.3-9"/></g></g></svg>