<svg xmlns="http://www.w3.org/2000/svg" viewBox="0 0 61.46 71.64"><defs><style>.cls-1{fill:#333;opacity:0.15;}.cls-2{fill:#ffe600;}</style></defs><title>Revenue Split</title><g id="Layer_2" data-name="Layer 2"><g id="Layer_1-2" data-name="Layer 1"><ellipse class="cls-1" cx="30.73" cy="67.46" rx="30.73" ry="4.18"/><path class="cls-2" d="M55.8,65.4c-3-5.88-3.52-12.07-3.25-18.47a17.82,17.82,0,0,0-2-9.18c-3-5.76-6.78-11-12-14.89-2-1.52-2.44-3.08-1.56-5.35,1.54-4,2.88-8,4.42-12,.86-2.19.24-3.4-2-3.9-2-.45-4-1-6.08-1.35-4.14-.7-4.41-.37-4.43,3.78,0,3,.86,5.87,1.18,8.81.14,1.23.49,2.88-1.22,3.22S27,14.75,26.69,13.54c-.37-1.54-.67-3.09-1-4.65-.82-4.54-1.62-5.21-6.37-5.39-2.12-.08-2.85.57-1.63,2.58,1.33,2.2,3.16,4.28,3.81,6.67,1.4,5.14,3.88,8.23,9.67,7.48a1.6,1.6,0,0,1,1.94,1.73c-.08,1.23-1.07,1.55-2.13,1.62a14.54,14.54,0,0,1-6.17-.51,4.48,4.48,0,0,0-5.31,1.3c-6.8,7-11.39,14.85-10.89,25.06.26,5.29.71,10.73-3,15.33a2,2,0,0,0-.32.83c-.26,1.19-1.14,2.86.92,3,1.51.1,4,1.42,4.27-1.84.2-2.53,1.57-2.51,3.19-1.27a9.57,9.57,0,0,0,4.43,2.3C28.11,69,38,70.32,47.68,66.22c1.25-.53,2.5-.68,2.94.8a2.23,2.23,0,0,0,2.69,1.72C56.53,68.77,57.16,68.11,55.8,65.4ZM38.29,46l-.77-2.34a8,8,0,0,0-4.93,7c0,.07,0,.15,0,.22s0,.06,0,.1,0,.14,0,.21v8.12H28.87V51.19c0-.07,0-.14,0-.21s0-.06,0-.1,0-.15,0-.22a8,8,0,0,0-4.93-7L23.17,46l-4.47-6.11,7.22-2.28-.82,2.51a11.72,11.72,0,0,1,5.64,4.59,11.72,11.72,0,0,1,5.64-4.59l-.82-2.51,7.22,2.28Z"/></g></g></svg>