<svg xmlns="http://www.w3.org/2000/svg" viewBox="0 0 61.46 70.62"><defs><style>.cls-1{fill:#333;opacity:0.15;}.cls-2{fill:#ffe600;}</style></defs><title>Revenue Share</title><g id="Layer_2" data-name="Layer 2"><g id="Layer_1-2" data-name="Layer 1"><ellipse class="cls-1" cx="30.73" cy="66.44" rx="30.73" ry="4.18"/><path class="cls-2" d="M55.06,63.46c-2.87-5.7-3.42-11.71-3.15-17.92A17.29,17.29,0,0,0,50,36.63C47,31,43.4,26,38.31,22.18c-2-1.48-2.37-3-1.51-5.19,1.5-3.85,2.79-7.77,4.29-11.62.83-2.13.23-3.3-1.94-3.79-2-.44-3.91-1-5.9-1.31C29.24-.4,29-.08,29,3.95c0,2.92.83,5.69,1.15,8.55.13,1.19.47,2.8-1.18,3.12s-1.83-1.31-2.11-2.49c-.36-1.49-.65-3-.92-4.51-.79-4.41-1.58-5.06-6.18-5.23-2.05-.08-2.77.55-1.58,2.5C19.42,8,21.2,10,21.83,12.36c1.36,5,3.77,8,9.39,7.25a1.55,1.55,0,0,1,1.89,1.68c-.08,1.2-1,1.51-2.06,1.58a14.11,14.11,0,0,1-6-.49,4.34,4.34,0,0,0-5.16,1.26C13.29,30.42,8.84,38.05,9.33,48c.25,5.14.69,10.42-2.87,14.87a2,2,0,0,0-.31.8C5.89,64.78,5,66.4,7,66.53c1.46.09,3.89,1.38,4.14-1.78.2-2.46,1.52-2.44,3.09-1.23a9.29,9.29,0,0,0,4.3,2.24c9.62,1.2,19.26,2.49,28.6-1.49,1.21-.52,2.43-.66,2.86.77a2.16,2.16,0,0,0,2.61,1.67C55.76,66.73,56.38,66.09,55.06,63.46ZM25.41,45a3.56,3.56,0,0,1-.07.72l10,5.18a3.5,3.5,0,1,1-.89,1.7l-10-5.18a3.54,3.54,0,1,1,0-4.9l10-5.14a3.58,3.58,0,1,1,.88,1.7l-10,5.12A3.54,3.54,0,0,1,25.41,45Z"/></g></g></svg>