<?xml version="1.0" encoding="utf-8"?>
<!-- Generator: Adobe Illustrator 19.2.1, SVG Export Plug-In . SVG Version: 6.00 Build 0)  -->
<svg version="1.1" id="Layer_1" xmlns="http://www.w3.org/2000/svg" xmlns:xlink="http://www.w3.org/1999/xlink" x="0px" y="0px"
	 viewBox="0 0 16 16" style="enable-background:new 0 0 16 16;" xml:space="preserve">
<style type="text/css">
	.st0{fill:#0E67B2;}
</style>
<path class="st0" d="M5.8,11.6C2.6,11.6,0,9,0,5.8S2.6,0,5.8,0s5.8,2.6,5.8,5.8S9,11.6,5.8,11.6 M5.8,1.6c-2.3,0-4.2,1.9-4.2,4.2
	c0,2.3,1.9,4.2,4.2,4.2S10,8.1,10,5.8S8.1,1.6,5.8,1.6"/>
<path class="st0" d="M12.8,16c-0.4,0-0.9-0.2-1.2-0.6l-3.4-4.1c-0.6-0.7-0.4-1.7,0.2-2.2C9,8.6,10,8.7,10.6,9.3l3.4,4.1
	c0.6,0.7,0.4,1.7-0.2,2.2C13.6,15.9,13.2,16,12.8,16"/>
</svg>
