<svg xmlns="http://www.w3.org/2000/svg" viewBox="0 0 80.07 53.17"><defs><style>.cls-1{fill:#2b2b2b;}.cls-2{fill:#fff;}.cls-3{fill:#898989;}.cls-4{fill:#aaa;}.cls-5{fill:#d8d8d8;}.cls-6{fill:#333;}.cls-7{fill:#0cc;}</style></defs><title>Simple website hosting</title><g id="Layer_2" data-name="Layer 2"><g id="Layer_1-2" data-name="Layer 1"><rect class="cls-1" x="18.82" width="61.25" height="8.26"/><path class="cls-2" d="M18.82,17h3.54V12.51H42V28.74H40v2.47H77.59V47.43H40v4.14h40V8.26H18.82ZM44,12.51H77.59V28.74H44Z"/><rect class="cls-3" x="44.04" y="12.51" width="33.55" height="16.22"/><path class="cls-4" d="M40,20v8.75h2V12.51H22.36V17H37A3,3,0,0,1,40,20Z"/><rect class="cls-5" x="40.03" y="31.21" width="37.56" height="16.22"/><rect class="cls-6" y="19.4" width="37.63" height="10.17" rx="4.37" ry="4.37"/><rect class="cls-6" y="31.2" width="37.63" height="10.17" rx="4.37" ry="4.37"/><rect class="cls-6" y="43" width="37.63" height="10.17" rx="4.37" ry="4.37"/><rect class="cls-7" x="1.9" y="23.24" width="7.69" height="2.5" rx="1.25" ry="1.25"/><rect class="cls-7" x="1.9" y="35.03" width="7.69" height="2.5" rx="1.25" ry="1.25"/><rect class="cls-7" x="1.9" y="46.83" width="7.69" height="2.5" rx="1.25" ry="1.25"/></g></g></svg>