<svg xmlns="http://www.w3.org/2000/svg" viewBox="0 0 53.41 28.25"><defs><style>.cls-1{fill:#fff;}</style></defs><title>Single-Bucket Storage Rerate</title><g id="Layer_2" data-name="Layer 2"><g id="Layer_1-2" data-name="Layer 1"><path class="cls-1" d="M35.65,8a1,1,0,0,0-.86.55,3.89,3.89,0,0,0-.34,1.93,3.86,3.86,0,0,0,.34,1.92,1,1,0,0,0,.89.54,1,1,0,0,0,.84-.55,3.86,3.86,0,0,0,.34-1.92,3.84,3.84,0,0,0-.35-1.92A1,1,0,0,0,35.65,8Z"/><path class="cls-1" d="M42.94,15.21a1,1,0,0,0-.87.55,3.89,3.89,0,0,0-.34,1.93,3.81,3.81,0,0,0,.35,1.92,1,1,0,0,0,.89.54,1,1,0,0,0,.83-.55,3.89,3.89,0,0,0,.34-1.92,3.86,3.86,0,0,0-.34-1.92A1,1,0,0,0,42.94,15.21Z"/><path class="cls-1" d="M53.28,12.27A14.12,14.12,0,0,0,40.82.08C40.39,0,40,0,39.53,0h-.24A14.12,14.12,0,0,0,39,28.24h.25A14.13,14.13,0,0,0,49.76,23.6a14.14,14.14,0,0,0,3.65-9.47A14.23,14.23,0,0,0,53.28,12.27Zm-19.35,1a4.67,4.67,0,0,1-.69-2.81,4.31,4.31,0,0,1,.68-2.62,2,2,0,0,1,1.67-.91,2.14,2.14,0,0,1,1.74.91A4.36,4.36,0,0,1,38,10.51a4.4,4.4,0,0,1-.71,2.7,2.11,2.11,0,0,1-1.72.93A2,2,0,0,1,33.93,13.22Zm2.86,8.14H35.64L41.8,6.89h1.13Zm7.82-.93a2.11,2.11,0,0,1-1.72.93,2,2,0,0,1-1.68-.93,4.67,4.67,0,0,1-.69-2.8A4.31,4.31,0,0,1,41.2,15a2,2,0,0,1,1.66-.91,2.15,2.15,0,0,1,1.75.9,4.34,4.34,0,0,1,.71,2.71A4.39,4.39,0,0,1,44.61,20.43Z"/><path d="M21.93,13.12H6a6,6,0,0,0-6,6v.68a6,6,0,0,0,6,6H26.35a26,26,0,0,1-4.43-12.68ZM7.37,21.55a2.09,2.09,0,1,1,2.09-2.09A2.09,2.09,0,0,1,7.37,21.55Z"/></g></g></svg>