<svg xmlns="http://www.w3.org/2000/svg" viewBox="0 0 67 82"><defs><style>.cls-1{fill:#307284;}</style></defs><title>Statements_b</title><g id="Layer_2" data-name="Layer 2"><g id="Layer_1-2" data-name="Layer 1"><polygon class="cls-1" points="54.16 36.19 53.8 35.47 52.96 34.99 52.01 34.87 48.66 34.87 45.44 34.87 42.58 34.87 39.83 34.87 37.2 34.87 34.81 34.87 32.66 34.87 30.63 34.87 28.72 34.87 26.93 34.87 25.38 34.87 23.95 34.87 22.75 34.87 21.56 34.87 20.48 34.87 19.53 34.87 18.1 34.87 16.9 34.87 16.07 34.87 15.47 34.87 15.23 34.87 14.99 34.87 14.04 34.99 13.32 35.47 12.84 36.19 12.6 37.15 12.84 38.11 13.32 38.83 14.04 39.31 14.99 39.55 18.34 39.55 21.44 39.55 24.43 39.55 27.17 39.55 29.8 39.55 32.19 39.55 34.34 39.55 36.37 39.55 38.28 39.55 39.95 39.55 41.5 39.55 42.93 39.55 44.25 39.55 45.44 39.55 46.4 39.55 47.35 39.55 48.9 39.55 50.1 39.55 50.93 39.55 51.41 39.55 51.77 39.55 51.89 39.55 52.01 39.55 52.96 39.31 53.8 38.83 54.16 38.11 54.4 37.15 54.16 36.19"/><polygon class="cls-1" points="53.8 49.16 52.96 48.68 52.01 48.44 48.66 48.44 45.44 48.44 42.58 48.44 39.83 48.44 37.2 48.44 34.81 48.44 32.66 48.44 30.63 48.44 28.72 48.44 26.93 48.44 25.38 48.44 23.95 48.44 22.75 48.44 21.56 48.44 20.48 48.44 19.53 48.44 18.1 48.44 16.9 48.44 16.07 48.44 15.47 48.44 15.23 48.44 14.99 48.44 14.04 48.68 13.32 49.16 12.84 49.88 12.6 50.84 12.84 51.8 13.32 52.52 14.04 53 14.99 53.12 18.34 53.12 21.44 53.12 24.43 53.12 27.17 53.12 29.8 53.12 32.19 53.12 34.34 53.12 36.37 53.12 38.28 53.12 39.95 53.12 41.5 53.12 42.93 53.12 44.25 53.12 45.44 53.12 46.4 53.12 47.35 53.12 48.9 53.12 50.1 53.12 50.93 53.12 51.41 53.12 51.77 53.12 51.89 53.12 52.01 53.12 52.96 53 53.8 52.52 54.16 51.8 54.4 50.84 54.16 49.88 53.8 49.16"/><polygon class="cls-1" points="53.8 63.16 52.96 62.68 52.01 62.44 48.66 62.44 47.44 62.44 44.58 62.44 48.83 62.44 46.2 62.44 47.81 62.44 47.66 62.44 45.63 62.44 43.72 62.44 48.93 62.44 47.38 62.44 45.95 62.44 46.75 62.44 45.56 62.44 44.48 62.44 43.53 62.44 42.1 62.44 40.9 62.44 40.07 62.44 39.47 62.44 39.23 62.44 38.99 62.44 38.04 62.68 37.32 63.16 36.84 63.88 36.6 64.84 36.84 65.8 37.32 66.52 38.04 67 38.99 67.12 42.34 67.12 45.44 67.12 46.42 67.12 49.17 67.12 44.8 67.12 47.19 67.12 47.34 67.12 49.37 67.12 47.28 67.12 48.95 67.12 43.5 67.12 44.93 67.12 46.25 67.12 47.44 67.12 46.4 67.12 47.35 67.12 48.9 67.12 50.1 67.12 50.93 67.12 51.41 67.12 51.77 67.12 51.89 67.12 52.01 67.12 52.96 67 53.8 66.52 54.16 65.8 54.4 64.84 54.16 63.88 53.8 63.16"/><polygon class="cls-1" points="54.16 22.38 53.8 21.66 52.96 21.06 52.01 20.94 48.66 20.94 45.44 20.94 42.58 20.94 39.83 20.94 37.2 20.94 34.81 20.94 32.66 20.94 30.63 20.94 28.72 20.94 26.93 20.94 25.38 20.94 23.95 20.94 22.75 20.94 21.56 20.94 20.48 20.94 19.53 20.94 18.1 20.94 16.9 20.94 16.07 20.94 15.47 20.94 15.23 20.94 14.99 20.94 14.04 21.06 13.32 21.66 12.84 22.38 12.6 23.22 12.84 24.3 13.32 25.02 14.04 25.5 14.99 25.62 18.34 25.62 21.44 25.62 24.43 25.62 27.17 25.62 29.8 25.62 32.19 25.62 34.34 25.62 36.37 25.62 38.28 25.62 39.95 25.62 41.5 25.62 42.93 25.62 44.25 25.62 45.44 25.62 46.4 25.62 47.35 25.62 48.9 25.62 50.1 25.62 50.93 25.62 51.41 25.62 51.77 25.62 51.89 25.62 52.01 25.62 52.96 25.5 53.8 25.02 54.16 24.3 54.4 23.22 54.16 22.38"/><path class="cls-1" d="M67,41V21c0-2.9-5-2.9-5,0V41c0,2.9,5,2.9,5,0Z"/><path class="cls-1" d="M62,12c0,2.9,5,2.9,5,0h0"/><path class="cls-1" d="M62,74.5A2.5,2.5,0,0,1,59.5,77H7.5A2.5,2.5,0,0,1,5,74.5V7.5A2.5,2.5,0,0,1,7.5,5h52A2.5,2.5,0,0,1,62,7.5V12h5V7.5A7.51,7.51,0,0,0,59.5,0H7.5A7.51,7.51,0,0,0,0,7.5v67A7.51,7.51,0,0,0,7.5,82h52A7.51,7.51,0,0,0,67,74.5V23H62Z"/></g></g></svg>
