<svg xmlns="http://www.w3.org/2000/svg" viewBox="0 0 41.24 61.66"><defs><style>.cls-1,.cls-2,.cls-3,.cls-4{fill:#fff;}.cls-2{opacity:0.5;}.cls-3{opacity:0.75;}.cls-4{font-size:12.42px;font-family:Impact, Impact;}</style></defs><title>Streaming Sports</title><g id="Layer_2" data-name="Layer 2"><g id="Layer_1-2" data-name="Layer 1"><path class="cls-1" d="M35.08,44.89H7.22a6.16,6.16,0,0,1-6.15-6.15V19.41a6.16,6.16,0,0,1,6.15-6.15H35.08a6.16,6.16,0,0,1,6.15,6.15V38.74A6.16,6.16,0,0,1,35.08,44.89ZM7.22,16.33a3.08,3.08,0,0,0-3.08,3.08V38.74a3.08,3.08,0,0,0,3.08,3.08H35.08a3.08,3.08,0,0,0,3.08-3.08V19.41a3.08,3.08,0,0,0-3.08-3.08Z"/><circle class="cls-2" cx="12.67" cy="29.07" r="3.09"/><circle class="cls-3" cx="21.13" cy="29.07" r="3.09"/><circle class="cls-1" cx="29.59" cy="29.07" r="3.09"/><circle class="cls-1" cx="29.38" cy="3.6" r="3.6"/><rect class="cls-1" x="17.84" y="8.66" width="12.91" height="3.08" transform="translate(1.04 22.59) rotate(-50.82)"/><circle class="cls-1" cx="13.18" cy="3.6" r="3.6"/><rect class="cls-1" x="16.73" y="3.74" width="3.08" height="12.91" transform="translate(-2.34 13.84) rotate(-39.19)"/><text class="cls-4" transform="matrix(0.97, 0, -0.26, 0.97, 1.06, 57.69)">SPORTS</text></g></g></svg>