<svg xmlns="http://www.w3.org/2000/svg" viewBox="0 0 98 106"><defs><style>.cls-1,.cls-3{fill:#307284;}.cls-1{fill-rule:evenodd;}.cls-2{fill:#e1ecef;}.cls-4{fill:#7ba4ad;}</style></defs><title>Transactions_b</title><g id="Layer_2" data-name="Layer 2"><g id="Layer_1-2" data-name="Layer 1"><path class="cls-1" d="M95.5,40.34l.88-.24.75-.48.62-.72.25-1V32.45h0l-.25-1.56-.37-1.32-.74-1.32-.87-1.08-1.12-.84-1.36-.72-1.36-.48L90.31,25H83V20.6h0L82.88,19l-.46-1.35-.58-1.35-.93-1.1-1-.86-1.16-.74-1.39-.37L75.83,13H69V7.6h0l-.12-1.47-.35-1.47-.69-1.35L67,2.21l-1.16-.86L64.72.61,63.33.25,61.94,0H7.17L5.79.24,4.4.6l-1.27.72-1,.84L1.27,3.25.58,4.58.23,6,0,7.47V73.89H0l.23,1.45.35,1.33.69,1.21L2.08,79l1,.84,1.27.72,1.39.36L7.17,81H14v5h0l.12,1.43.46,1.31.69,1.19L16.08,91l1,.83,1.27.72,1.27.36,1.5.12H28v5.61h0l.12,1.55.35,1.31.69,1.31.93,1.07,1,.83,1.16.72,1.39.36,1.39.24H90.25l1.62-.24,1.38-.36,1.37-.72,1.13-.84.87-1.08.75-1.32.37-1.32L98,98.55V47.09h0l-.25-.84-.62-.84-.75-.48-.88-.24-1,.24-.88.48-.37.84-.25.84V99.34h0l-.24,1.09-.48.85-.84.48-1.08.24H35.63l-1-.24-.84-.48-.6-.85L33,99.34V32.66h0l.24-1.09.6-.85.84-.61,1-.12H90.25l1.12.12.88.6.5.84L93,32.64v5.29h0l.25,1,.37.72.88.48,1,.24ZM14,20.52V76H6.72L5.6,75.88l-.86-.48-.49-.72L4,73.61v-66H4l.25-1.08.49-.84.86-.48L6.72,5H61.39l1,.24,1,.48.48.85L64,7.67V13H21.36l-1.54.24-1.31.36-1.31.73-1.07.85-.83,1.09-.71,1.33-.48,1.33L14,20.52ZM79,25H36.53L35,25.12l-1.48.48-1.23.72-1.11.84-1,1.08-.74,1.31-.37,1.31L29,32.41V88H21.72l-1.11-.12-.86-.48-.62-.84-.12-1V19.67h0l.12-1.09.6-.85.84-.48L21.63,17H76.25l1.08.24.84.48.6.85L79,19.67V25Z"/><polygon class="cls-1" points="83.1 73 79.53 73 76.21 73 73.01 73 70.08 73 67.27 73 64.72 73 62.42 73 60.25 73 58.21 73 56.42 73 54.76 73 53.23 73 51.82 73 50.55 73 49.52 73 48.5 73 46.84 73 45.57 73 44.8 73 44.16 73 43.78 73 43.65 73 43.53 73 42.63 73.26 41.87 73.77 41.23 74.54 40.97 75.56 41.23 76.59 41.87 77.36 42.63 77.87 43.53 78 47.1 78 50.55 78 53.61 78 56.55 78 59.35 78 61.91 78 64.21 78 66.38 78 68.42 78 70.21 78 71.99 78 73.53 78 74.8 78 76.08 78 77.23 78 78.12 78 79.78 78 81.06 78 81.95 78 82.46 78 82.84 78 83.1 78 83.1 78 83.99 77.87 84.89 77.36 85.4 76.59 85.65 75.56 85.4 74.54 84.89 73.77 83.99 73.26 83.1 73 83.1 73"/><polygon class="cls-1" points="83.1 85 79.53 85 76.21 85 73.01 85 70.08 85 67.27 85 64.72 85 62.42 85 60.25 85 58.21 85 56.42 85 54.76 85 53.23 85 51.82 85 50.55 85 49.52 85 48.5 85 46.84 85 45.57 85 44.8 85 44.16 85 43.78 85 43.65 85 43.53 85 42.63 85.26 41.87 85.77 41.23 86.54 40.97 87.56 41.23 88.59 41.87 89.36 42.63 89.87 43.53 90 47.1 90 50.55 90 53.61 90 56.55 90 59.35 90 61.91 90 64.21 90 66.38 90 68.42 90 70.21 90 71.99 90 73.53 90 74.8 90 76.08 90 77.23 90 78.12 90 79.78 90 81.06 90 81.95 90 82.46 90 82.84 90 83.1 90 83.1 90 83.99 89.87 84.89 89.36 85.4 88.59 85.65 87.56 85.4 86.54 84.89 85.77 83.99 85.26 83.1 85 83.1 85"/><path class="cls-2" d="M63.93,37a13.47,13.47,0,0,0-10.6,4.62l9.42,8.22Z"/><path class="cls-3" d="M72.37,40.33A13.44,13.44,0,0,0,63.93,37L62.75,49.84l10.93,9.53A13.5,13.5,0,0,0,72.37,40.33Z"/><path class="cls-4" d="M53.33,41.63A13.5,13.5,0,1,0,73.67,59.37L62.75,49.84Z"/></g></g></svg>
