<?xml version="1.0" encoding="UTF-8" standalone="no"?>
<svg width="18px" height="13px" viewBox="0 0 18 13" version="1.1" xmlns="http://www.w3.org/2000/svg" xmlns:xlink="http://www.w3.org/1999/xlink" xmlns:sketch="http://www.bohemiancoding.com/sketch/ns">
    <!-- Generator: Sketch 3.4.3 (16618) - http://www.bohemiancoding.com/sketch -->
    <title>Rectangle 211</title>
    <desc>Created with Sketch.</desc>
    <defs></defs>
    <g id="Page-1" stroke="none" stroke-width="1" fill="none" fill-rule="evenodd" sketch:type="MSPage">
        <g id="2---Canvas" sketch:type="MSArtboardGroup" transform="translate(-389.000000, -143.000000)" fill="#FFFFFF">
            <path d="M404,150 L404,152 L404.994081,152 C406.101919,152 407,152.88773 407,154 C407,155.104569 406.113445,156 404.994081,156 L402.005919,156 C400.898081,156 400,155.11227 400,154 C400,152.895431 400.886555,152 402.005919,152 L403,152 L403,150 L393,150 L393,152 L393.994081,152 C395.101919,152 396,152.88773 396,154 C396,155.104569 395.113445,156 393.994081,156 L391.005919,156 C389.898081,156 389,155.11227 389,154 C389,152.895431 389.886555,152 391.005919,152 L392,152 L392,149.5 L392,149 L392.25,149 L392.5,149 L398,149 L398,147 L397.005919,147 C395.898081,147 395,146.11227 395,145 C395,143.895431 395.886555,143 397.005919,143 L399.994081,143 C401.101919,143 402,143.88773 402,145 C402,146.104569 401.113445,147 399.994081,147 L399,147 L399,149 L403.545361,149 L404.045361,149 L404.045361,150 L404,150 L404,150 Z" id="Rectangle-211" sketch:type="MSShapeGroup"></path>
        </g>
    </g>
</svg>