<?xml version="1.0" encoding="utf-8"?>
<!-- Generator: Adobe Illustrator 18.0.0, SVG Export Plug-In . SVG Version: 6.00 Build 0)  -->
<!DOCTYPE svg PUBLIC "-//W3C//DTD SVG 1.1//EN" "http://www.w3.org/Graphics/SVG/1.1/DTD/svg11.dtd">
<svg version="1.1" xmlns="http://www.w3.org/2000/svg" xmlns:xlink="http://www.w3.org/1999/xlink" x="0px" y="0px"
	 viewBox="0 0 105 105" enable-background="new 0 0 105 105" xml:space="preserve">
<g id="Layer_1" display="none">
	<g display="inline">
		<circle fill="#FFFFFF" stroke="#000000" stroke-width="2" stroke-miterlimit="10" cx="52" cy="52" r="50"/>
		<g>
			<defs>
				<circle id="SVGID_1_" cx="52" cy="53" r="50"/>
			</defs>
			<clipPath id="SVGID_2_">
				<use xlink:href="#SVGID_1_"  overflow="visible"/>
			</clipPath>
			<path clip-path="url(#SVGID_2_)" d="M90.7,101.7c0.1-2.6-0.4-3.9-1.6-4.1c0-4.7-6.7-22.3-10.3-23.5c-0.8-0.3-1.7-0.5-2.7-0.6
				l-8-3.3l-1-2.5l-1.8-1.3c0.4-0.3,0.9-0.5,1.3-0.8c2.9-2.3,4.2-6,4.1-11l-1.2-9.3c-0.8-7-3-12.8-6.5-17.5
				c-2.8-4.9-6.3-6.7-10.4-5.7c-0.3,0.1-0.6,0.2-0.9,0.3c-1.1-0.8-2.4-1.2-3.6-1.1c-2.6,0.1-5.6,2-8.9,5.5c-3.8,4.5-6,11.5-6.8,20.8
				c0,0.1,0,0.2,0,0.4c0,0,0,0,0,0.1c-0.1,3.5,1.9,9.5,6.2,18c0,0.1,0.1,0.2,0.1,0.3l-1.5,1.1L33.5,70l-1,1.8l-2,0.9l-10.2,4.6
				c0.6,4.3,1.6,18.6,3.1,23.3c-1.5-4.7-2.5-19-3.1-23.3c-0.4,0.4-0.7,0.9-1,1.4c-2.1,3.3-3.4,17.6-3.8,23.1l-0.4,4.7l-0.3,0.9
				l1.6-0.2l1.7-24.6l-1.7,24.6l1.5-0.2l4.8-0.5l2.8-0.3L37,105l1.6-0.2c-1.4-1.9-2.7-3.9-3.8-5.9c1.1,2,2.3,4,3.8,5.9l1.2-0.1
				l1.4-0.2l5.5-0.6l0.7-0.1c-2.2-6.4-4.2-22.8-5.9-29.6c0.4-0.3,0.7-0.7,1-1.2c0.3-0.4,0.5-0.9,0.8-1.5l-0.3-7.4
				c-2.2-2.1-3.8-5.3-4.8-9.5l-0.5-3.6c-0.4,0.2-0.7,0.2-1,0.1c-0.1-1.6-0.1-3.2,0.2-4.8l0.5-2.4c0.6-3.3,2-6.5,4.1-9.8
				c1-1.1,2.2-1.8,3.5-2.1c0,0,0,0,0.1,0c0.3-0.1,0.7-0.1,1-0.1c0,0.2,0,0.3,0.1,0.5c0.4,2.4,1.2,4.7,2.4,6.8c0.6,1,1.3,2,2.1,2.9
				c-1.9-3.3-2.6-6.6-2.3-10.1c0-0.1,0-0.1,0-0.2c0,0.1,0.1,0.1,0.1,0.2c0.8,1.5,1.8,3,2.7,4.4c1.3,2,2.7,3.8,4.2,5.4
				c1.6,1.7,3.2,3.3,5.1,4.8c0.4,1.8,0.5,3.6,0.5,5.4l-0.2,1.4c0,0,0,0.1,0,0.1c-0.5,3-1.4,5.5-2.9,7.6c0,1.9-0.4,3.9-1.1,6.1
				l-0.5,1.4c0.6,0,1.2,0,1.7,0c0.4,0,0.7,0,1.1-0.1l-8.3,35.1l1.4-0.2l1.6-0.2l7.5-0.8c0,0,0,0,0,0l4.3-0.5c2.1-3,3.8-16,5-19.2
				c-1.2,3.2-2.9,16.2-5,19.2l8.8-1l0,0 M84.8,100.7 M33,94.7c0.6,1.4,1.2,2.8,1.9,4.2C34.2,97.5,33.5,96.1,33,94.7z"/>
		</g>
	</g>
</g>
<g id="Layer_2">
	<g>
		<circle fill="#FFFFFF" stroke="#000000" stroke-width="2" stroke-miterlimit="10" cx="52" cy="52" r="50"/>
		<g>
			<defs>
				<circle id="SVGID_3_" cx="52.5" cy="52.5" r="50.5"/>
			</defs>
			<clipPath id="SVGID_4_">
				<use xlink:href="#SVGID_3_"  overflow="visible"/>
			</clipPath>
			<g clip-path="url(#SVGID_4_)">
				<g id="XMLID_1_">
					<g>
						<path fill="#FFFFFF" d="M-21.4,125.3c3.8-0.9,5.3-7.4,5.4-10.6c0-1,0.1-5.5-0.9-6c2.9,0.9,2.4,5,2,7.6c0,0.3-0.1,0.6-0.1,0.8
							C-15.7,120.9-17.5,124.3-21.4,125.3z"/>
						<path fill="#FFFFFF" d="M38.3,61c0.1,3.8,5.2,7.1,8.1,9l2,1.4l-1.7,3.1l-2.4,5c0,0-1.7,3-1.7,3c-0.2,0.4-2.3-3.8-2.6-4.4
							c-0.9-1.7-1.6-3.5-2-5.4c-0.7-3.7-0.4-7.6,0.2-11.4c0.1-0.4,0.1-0.8,0.2-1.2C38.3,60.5,38.3,60.8,38.3,61z"/>
						<path fill="#FFFFFF" d="M38,74.1c0.4,1.9,1.1,3.7,2,5.4c0.3,0.5,2.6,3.7,2.6,3.7l3.5-6.1l1.8,4.8c-0.2,0.4-2.8,28.1-3.3,32.8
							c-1.2-2.6-6.8-37.9-6.7-41.2C37.9,73.8,37.9,74,38,74.1z"/>
						<path fill="#FFFFFF" d="M61.1,78.5c1.4-3,2.2-5.6,2.4-8.3l0.1,0c0.3,3-4,43.1-6.3,44.3c-0.6-1.2-4.2-32.5-4.2-32.5l1.7-5.3
							c1.5,2.3,2.7,4.1,4,6.6C58.8,83.3,60.8,79.2,61.1,78.5z"/>
						<path fill="#FFFFFF" d="M58.8,82.6c-1.7-3.2-3.2-6.4-5.6-9.3l-1.6-1.9l0.7-0.4c2.4-0.8,5.2-3,7.2-5c0.1,0,0.1-0.1,0.2-0.2
							c0.6-0.5,1.1-1,1.6-1.6c0,0,0,0,0.1-0.1c0.2-0.3,0.5-0.7,0.7-1c0.2-0.3,0.3-0.7,0.5-1c0,0,0,0,0,0c0,0.1,0.2,0.4,0.3,0.6
							c0,0.1,0.1,0.1,0.1,0.2c0.2,0.4,0.3,0.9,0.4,1.4c0,0,0,0,0,0c0,0.3,0.1,0.6,0.1,0.9c0,0.2,0,0.4,0,0.6c0,0.1,0,0.3,0,0.4
							c0,0.3,0,0.6,0,0.9c0,0.3,0,0.5,0,0.8c0,0.1,0,0.3,0,0.4c0,0.2,0,0.4,0,0.6c0,0.3,0,0.6-0.1,0.9c0,0.2-0.1,0.5-0.1,0.7
							c0,0.3-0.1,0.5-0.1,0.8c0,0.3-0.1,0.5-0.2,0.8c-0.1,0.3-0.1,0.5-0.2,0.8c0,0,0,0,0,0c-0.1,0.2-0.1,0.5-0.2,0.7
							c-0.1,0.3-0.2,0.5-0.2,0.8c-0.1,0.2-0.2,0.5-0.3,0.7c0,0,0,0,0,0c-0.1,0.2-0.2,0.5-0.3,0.7c0,0.1-0.1,0.1-0.1,0.2
							c-0.1,0.2-0.1,0.3-0.2,0.5c-0.1,0.3-0.3,0.6-0.4,0.9C60.8,77.9,58.8,82.6,58.8,82.6z"/>
						<path d="M63.3,70.4c0-0.2,0.1-0.5,0.1-0.7C63.4,69.9,63.4,70.1,63.3,70.4z"/>
						<path d="M63.3,70.4c0,0.3-0.1,0.5-0.1,0.8C63.2,70.9,63.3,70.6,63.3,70.4z"/>
						<path d="M63.4,64.2c-0.1-0.5-0.2-0.9-0.4-1.4c0.1,0.1,0.1,0.2,0.2,0.3C63.3,63.5,63.4,63.9,63.4,64.2z"/>
						<path d="M63,71.9c0.1-0.3,0.1-0.5,0.2-0.8C63.1,71.4,63.1,71.6,63,71.9z"/>
						<path d="M62.8,72.7c0.1-0.3,0.1-0.5,0.2-0.8C63,72.2,62.9,72.4,62.8,72.7z"/>
						<path d="M62.6,73.4c0.1-0.3,0.1-0.5,0.2-0.7C62.8,72.9,62.7,73.2,62.6,73.4z"/>
						<path d="M62.7,62.1c0.1,0.2,0.2,0.4,0.3,0.6C62.9,62.5,62.7,62.1,62.7,62.1z"/>
						<path d="M62.4,74.2c0.1-0.3,0.2-0.5,0.2-0.8C62.5,73.7,62.5,73.9,62.4,74.2z"/>
						<path d="M61.8,75.6c0.1-0.2,0.2-0.5,0.3-0.7C62,75.1,61.9,75.4,61.8,75.6z"/>
						<path d="M88.6,182c0.2,1.5,0.4,2.9,0.5,4c0.2-0.5,0.3-1.1,0.5-1.6c0.2-0.8,0.4-1.5,0.6-2.3L88.6,182z M-17,108.7
							c1,0.5,0.9,5,0.9,6c-0.1,3.2-1.6,9.7-5.4,10.6c3.9-1,5.8-4.4,6.4-8.2c0-0.3,0.1-0.5,0.1-0.8C-14.5,113.7-14,109.6-17,108.7z
							 M62.6,61.5c0.1,0.3,0.2,0.5,0.4,0.7c0.3,0.4,0.4,0.8,0.7,1.2c0.4,0.6,0.9,1.2,1.3,1.7c0.7,0.9,1.5,1.7,2.4,2.5
							c6.3,5.9,15.8,6.9,23.4,10.2c1.3,0.6,2.9,0.8,3.6,1.6c1.2,1.4,0.9,3.4,1.2,5.1c1.7,7.3,10.2,95,10.1,96c-0.2,0-0.6,0-0.9,0
							l-0.3,2.2l-2.8-0.1c0.1,0.3,0.3,0.7,0.4,1c0.6,1.7,1.7,7.1,1.5,8.1c-0.1,0.5-0.2,0.9-0.4,1.4c-0.2,0.4-5.2,5.8-5.7,6.1
							c-0.5,0.2-1,0.4-1.6,0.2c-0.1,0-0.1,0-0.2,0v0.1c-0.9-0.3-1.7-0.6-2.6-0.9c0-0.7-0.1-1.4-0.3-2c0.2,0.6-0.1,1.3-0.5,1.7
							c0,0,0,0-0.1,0c-0.3-0.1-0.4,0.1-0.4,0.3c-1,0.3-2.6-1.6-3.1-2.3c-0.4-0.5-1.1-1.2-1.2-1.8c-0.1-0.6,0.5-4.6,0.8-5.9
							c-0.9,0-1.9,0.2-2.6,0.4c0,0-0.1,10.9,0,16.2c0.2,18.7-0.5,74.5-2,83.8c-1,6.4,0.6,13.1,0,19.6c-0.6,6.6,4.9,10.7,3.8,17.4
							c-0.2,0-0.5,0.1-0.7,0.1c0.7,0.9,1.6,1.8,2.2,2.7c0.6,0.9,1.1,1.9,1.9,2.7c0.9,0.9,1.7,1.8,2.5,2.7c0.9,1.1,0.9,1.7,1.3,3.1
							c0.2,0.9,0.6,1.7,0.2,2.6c-0.2,0.4-0.5,0.8-0.9,1c-1.6,1.1-4.2,1.3-5.8,1.3c-4.6,0-10.2-1.1-13.8-3.4c-2.4-1.6-3-3.7-3.6-5.9
							c-0.2-0.6-0.4-1.1-0.5-1.7c-0.2-0.6-0.1-0.8-0.2-1c-0.1-0.1-0.3-0.2-0.7-0.3c-0.3-0.1-0.6-0.2-0.9-0.3
							c-1.2-0.5-2.8-1.2-4.2-1.3c-0.8-0.4-1.6-1-1.4-1.4c0.2-0.6,0.2-1.7,0.3-2.9c0-0.5,0-1.1,0.1-1.6c-0.3-4.2-1-8.6-0.6-12.7
							c0.6-6.2-0.7-10.3-1.7-16.2c-0.9-4.9-1-10-1.4-15c-0.8-9.3-1.8-18.6-2.3-28c-0.3-4.7-4.1-34.5-4.9-44.6
							c-0.2-2-0.3-3.9-0.5-5.9c0,2.4-3.6,26.2-4.1,35.6c-0.2,4.1-0.9,8.1-1.1,12.2c-0.6,11.1-1.3,22.2-2.3,33.3
							c-0.4,4.2-0.7,7.6-2.2,11.4c-1.4,3.6-3.5,8.3-2.7,12.2c0.5,2.3,2.3,3.6,2.5,6.3c0.2,2.8-0.4,5.9-0.7,8.8c0,0.3,0,0.6,0,0.8
							c0,1.3,0.1,2.5,0.3,3.2c0.1,0.3-0.3,0.7-0.8,1.1c-0.6,0.5-1.5,0.9-1.8,1.1c-1,0.6-2.2,0.8-3.4,1c-1.7,0.3-1.1,0.3-1.4,1.4
							c-0.2,0.6-0.4,1.2-0.5,1.9c-0.6,2.4-1.1,4.6-3.5,6.4c-3.5,2.5-9.1,3.8-13.7,3.8c-1.2,0-2.4-0.1-3.6-0.5
							c-1.2-0.4-3.3-1-3.8-2.2c-0.3-0.5-0.2-1.2,0.3-2c0.2-0.2,0.3-0.5,0.5-0.8c0.2-0.4,0-1,0.1-1.4c0.1-0.6,0.5-0.9,0.8-1.4
							c0.9-1.1,1.8-2.2,2.7-3.3c0.8-0.9,1.2-1.9,1.8-2.9c0.7-1.2,1.4-2.2,2.1-3.2c-0.2,0.1-0.3,0.1-0.5,0.2c-0.5-2.7,1-5.6,1.1-8.2
							c0.1-2.8,0.1-5.6,0.1-8.4c0-4.8-0.3-9.6,0.4-14.2c0.6-3.8-0.3-7.5-0.4-11.3c-0.1-3.3,1-5.9,0.8-9.2c-0.3-3.6-0.3-7.1-0.2-10.7
							c0.1-3.4-0.7-6.7-0.5-10.2c0.4-8.1,0.1-16.3,0.1-24.2c0-3.4-1-36.8-1-36.8s-3-0.2-4-0.1c0,0,2.5-64.6,2-64.3
							c-5.2,3-13.5,14.1-20.3,12.4c-8.6-2.2-18.2-6.3-19.5-16c-0.1-0.6-0.2-1.1-0.3-1.6c-0.2-1-0.5-2-0.7-3c-0.1-0.5-0.2-1-0.2-1.5
							c0-0.2,0-0.5,0-0.7c0,0,0-0.2,0-0.3c-0.6-0.4-1.2-0.6-1.9-0.8c-0.9-0.3-1.8-0.5-2.7-0.8c-0.5-0.2-0.9-0.3-1.4-0.5l-1.3-0.6
							c-0.9-0.4-1.8-0.9-2.6-1.6c-0.1-0.1-0.2-0.2-0.3-0.3c-0.1-0.1-0.2-0.2-0.3-0.3c-0.2-0.2-0.3-0.4-0.4-0.7
							c-1-1.8-2.3-5.3-1.2-7.4c0-0.1-0.7-2-0.6-2.5c0.2-0.9,0.8-1.6,1.6-2c0.8-0.4,1.5-0.3,2.2-0.2l6.3,6.7l2-2l-3.9-3.8
							c1.1-0.4,1.9-1.7,3.2-1.8c2.7-0.2,4,2.7,5.5,4.4c0.6,0.7,1.3,1.5,1.8,2.3c0.5,0.8,1,1.7,1.3,2.6c0.2,0.6,0.4,1.2,0.4,1.9
							c0.1,0.1,0.2,0.2,0.3,0.3c0,0,0,0,0-0.1c-0.1-0.1-0.1-0.3-0.2-0.4c0.2,0,0.5,0.2,0.7,0.3c0.5,0.3,1,0.5,1.4,0.7
							c1.3,0.8,2.6,1.5,3.8,2.3c1.1,0.7,2.2,1.3,3.2,2c1.7,1.5,10.3-16.5,11.6-18.4c2.5-3.9,2.2-9,4.1-13.1c1.7-3.6,4.2-4.6,7.6-6.1
							c6.3-2.8,13.6-3.8,19.2-8.1c1.3-1,2.4-2.1,3.3-3.5c0.6-0.9,1-1.9,1.2-2.9c0.7-2.6,0.4-4.2-0.3-6.8c-0.1-0.3-0.2-0.6-0.3-0.8
							c-0.1-0.2-0.2-0.3-0.2-0.5c-0.1-0.2-0.3-0.3-0.5-0.5c-0.2-0.1-0.5-0.3-0.9-0.3c-0.4-0.1-0.8-0.3-1.1-0.6
							c-0.5-0.4-0.8-0.9-1-1.3c-0.2-0.5-0.4-0.9-0.6-1.3c-0.3-0.7-0.4-1.4-0.6-2.1c-0.1-0.7-0.3-1.3-0.5-1.9
							c-0.2-0.7-0.4-1.4-0.4-2.2c0-0.5,0.1-1,0.3-1.5c0.1-0.2,0.2-0.4,0.4-0.6c0.2-0.3,0.5-0.4,0.8-0.5c0.2-0.1,0.4-0.1,0.6-0.1
							c-0.2-0.8-0.4-1.6-0.5-2.5c-0.4-4-0.2-8.7,2.1-12.2c1.1-1.7,2.6-2.3,4.3-3.2c1.6-0.8,3.3-2.4,5-2.9c4.1-1.1,8.3-0.3,12.3,0.6
							c1.7,0.4,3,1,4.2,1.9c5.5,4.2,7.5,10.8,5.7,17.4c0,0,0,0.1,0,0.1c0,0,0,0.1,0,0.1c0,0.1-0.1,0.3-0.2,0.5
							c-0.1,0.1-0.1,0.3-0.2,0.4c0.6,0,1.1,0.2,1.6,0.6c0.2,0.2,0.5,0.5,0.6,0.8c0.1,0.3,0.2,0.6,0.2,1c0,0.1,0,0.3,0,0.4
							c-0.2,0.9-0.3,1.8-0.6,2.8c-0.2,0.5-0.4,1-0.6,1.5c-0.2,0.4-0.4,0.8-0.5,1.2c-0.1,0.2-0.1,0.5-0.1,0.7
							c-0.1,0.4-0.1,0.8-0.3,1.2c-0.7,2.2-3,2.1-4,3.9C61.6,56,62,59.3,62.6,61.5z M53.2,73.3c2.3,2.8,3.8,6.1,5.6,9.3
							c0,0,2-4.7,2.3-5.4c0.1-0.3,0.3-0.6,0.4-0.9c0.1-0.2,0.1-0.3,0.2-0.5c0-0.1,0.1-0.2,0.1-0.2c0.1-0.2,0.2-0.5,0.3-0.7
							c0,0,0,0,0,0c0.1-0.2,0.2-0.5,0.3-0.7c0.1-0.3,0.2-0.5,0.2-0.8c0.1-0.3,0.2-0.5,0.2-0.7c0,0,0,0,0,0c0.1-0.3,0.1-0.5,0.2-0.8
							c0.1-0.3,0.1-0.5,0.2-0.8c0.1-0.3,0.1-0.5,0.1-0.8c0-0.2,0.1-0.5,0.1-0.7c0-0.3,0.1-0.6,0.1-0.9c0-0.2,0-0.4,0-0.6
							c0-0.1,0-0.3,0-0.4c0-0.3,0-0.5,0-0.8c0-0.3,0-0.6,0-0.9c0-0.1,0-0.3,0-0.4c0-0.2,0-0.4,0-0.6c0-0.3,0-0.6-0.1-0.9
							c0,0,0,0,0,0c0-0.4-0.1-0.7-0.1-1.1c-0.1-0.1-0.2-0.1-0.2-0.3c0,0,0-0.1-0.1-0.2c-0.1-0.2-0.2-0.5-0.3-0.6c0,0,0,0,0,0
							c-0.2,0.3-0.3,0.7-0.5,1c-0.2,0.4-0.5,0.7-0.7,1c0,0,0,0.1-0.1,0.1c-0.5,0.6-1,1.1-1.6,1.6c-0.1,0-0.1,0.1-0.2,0.2
							c-2.1,2.1-4.8,4.3-7.2,5l-0.7,0.4L53.2,73.3z M39.9,78.2c0.3,0.5,2.4,4.7,2.6,4.4c0,0,1.7-3,1.7-3l2.4-5l1.7-3.1l-2-1.4
							c-2.8-1.9-7.9-5.2-8.1-9c0-0.3,0-0.6,0-0.8c-0.1,0.4-0.1,0.8-0.2,1.2c-0.6,3.7-0.9,7.6-0.2,11.4C38.3,74.7,39,76.5,39.9,78.2z
							 M53.1,82c0,0,3.6,31.3,4.2,32.5c2.3-1.2,6.6-41.3,6.3-44.3l-0.1,0c-0.2,2.7-1,5.3-2.4,8.3c-0.3,0.7-2.3,4.8-2.3,4.8
							c-1.3-2.4-2.5-4.3-4-6.6L53.1,82z M39.9,79.6c-0.9-1.7-1.6-3.5-2-5.4c0-0.1,0-0.3-0.1-0.4c-0.1,3.3,5.5,38.6,6.7,41.2
							c0.4-4.7,3.1-32.4,3.3-32.8L46,77.2l-3.5,6.1C42.5,83.3,40.2,80.1,39.9,79.6z"/>
						<path d="M-70.3,59.3l40,38.9c-0.3,0.1-0.5,0.2-0.8,0.2c-1.3,0-2.4-0.8-3.6-1.1L-70.3,59.3z"/>
						<path d="M-28.5,104.1l-6.3-6.7c1.2,0.3,2.3,1.1,3.6,1.1c0.3,0,0.6-0.1,0.8-0.2l3.9,3.8L-28.5,104.1z"/>
					</g>
				</g>
			</g>
		</g>
	</g>
</g>
<g id="Layer_3" display="none">
	<g display="inline">
		<path fill="#FFFFFF" d="M38.9,53c0-0.3,0-0.6,0-0.8c-0.1,0.4-0.1,0.8-0.2,1.2c-0.6,3.7-0.9,7.6-0.2,11.4c0.4,1.9,1.1,3.7,2,5.4
			c0.3,0.5,2.4,4.7,2.6,4.4c0,0,1.7-3,1.7-3l2.4-5l1.7-3.1l-2-1.4C44.1,60.1,39,56.9,38.9,53z"/>
		<path fill="#FFFFFF" d="M46.6,69.2l-3.5,6.1c0,0-2.3-3.2-2.6-3.7c-0.9-1.7-1.6-3.5-2-5.4c0-0.1,0-0.3-0.1-0.4
			c-0.1,2.1,2.1,16.9,4.1,28.2c1.2,0.3,2.5,0.5,3.8,0.6c0.9-9.3,2-20.2,2.1-20.5L46.6,69.2z"/>
		<path fill="#FFFFFF" d="M64.1,62.2L64.1,62.2c-0.3,2.7-1,5.3-2.4,8.3c-0.3,0.7-2.3,4.8-2.3,4.8c-1.3-2.4-2.5-4.3-4-6.6L53.7,74
			c0,0,1.3,11.5,2.5,20.9c1.5-0.1,3-0.2,4.5-0.5C62.5,82,64.3,64.2,64.1,62.2z"/>
		<path fill="#FFFFFF" d="M64.1,57.7c0-0.2,0-0.4,0-0.6c0-0.3,0-0.6-0.1-0.9c0,0,0,0,0,0c-0.1-0.5-0.2-0.9-0.4-1.4
			c0,0,0-0.1-0.1-0.2c-0.1-0.2-0.3-0.6-0.3-0.6c0,0,0,0,0,0c-0.2,0.3-0.3,0.7-0.5,1c-0.2,0.4-0.5,0.7-0.7,1c0,0,0,0.1-0.1,0.1
			c-0.5,0.6-1,1.1-1.6,1.6c-0.1,0-0.1,0.1-0.2,0.2c-2.1,2.1-4.8,4.3-7.2,5l-0.7,0.4l1.6,1.9c2.3,2.8,3.8,6.1,5.6,9.3
			c0,0,2-4.7,2.3-5.4c0.1-0.3,0.3-0.6,0.4-0.9c0.1-0.2,0.1-0.3,0.2-0.5c0-0.1,0.1-0.2,0.1-0.2c0.1-0.2,0.2-0.5,0.3-0.7c0,0,0,0,0,0
			c0.1-0.2,0.2-0.5,0.3-0.7c0.1-0.3,0.2-0.5,0.2-0.8c0.1-0.3,0.1-0.5,0.2-0.7c0,0,0,0,0,0c0.1-0.3,0.1-0.5,0.2-0.8
			c0.1-0.3,0.1-0.5,0.2-0.8c0-0.3,0.1-0.5,0.1-0.8c0-0.2,0.1-0.5,0.1-0.7c0-0.3,0.1-0.6,0.1-0.9c0-0.2,0-0.4,0-0.6
			c0-0.1,0-0.3,0-0.4c0-0.3,0-0.5,0-0.8c0-0.3,0-0.6,0-0.9C64.1,58,64.1,57.9,64.1,57.7z"/>
		<path d="M63.8,55.1c-0.1-0.1-0.2-0.1-0.2-0.3c0.2,0.4,0.3,0.9,0.4,1.4C63.9,55.9,63.9,55.5,63.8,55.1z"/>
		<path d="M63.2,54.1c0,0.1,0.2,0.4,0.3,0.6C63.4,54.5,63.4,54.2,63.2,54.1z"/>
		<path d="M91.3,69.8c-7.6-3.3-17.1-4.3-23.4-10.2c-0.8-0.8-1.6-1.6-2.4-2.5c-0.5-0.6-0.9-1.1-1.3-1.7c-0.3-0.4-0.4-0.8-0.7-1.2
			c-0.2-0.2-0.3-0.4-0.4-0.7c-0.6-2.2-1-5.4,0.2-7.5c1-1.7,3.3-1.7,4-3.9c0.2-0.5,0.2-0.9,0.3-1.2c0-0.3,0.1-0.5,0.1-0.7
			c0.1-0.4,0.3-0.8,0.5-1.2c0.2-0.4,0.4-0.9,0.6-1.5c0.3-1,0.5-1.9,0.6-2.8c0-0.1,0-0.3,0-0.4c0-0.3-0.1-0.7-0.2-1
			c-0.1-0.3-0.3-0.6-0.6-0.8c-0.4-0.4-1-0.6-1.6-0.6c0.1-0.1,0.1-0.3,0.2-0.4c0.1-0.2,0.2-0.3,0.2-0.5c0,0,0-0.1,0-0.1
			c0,0,0,0,0-0.1c1.8-6.6-0.2-13.2-5.7-17.4c-1.2-0.9-2.5-1.5-4.2-1.9c-4-0.9-8.2-1.7-12.3-0.6c-1.6,0.5-3.4,2.1-5,2.9
			c-1.7,0.8-3.2,1.5-4.3,3.2c-2.3,3.4-2.5,8.1-2.1,12.2c0.1,0.9,0.3,1.7,0.5,2.5c-0.2,0-0.4,0-0.6,0.1c-0.3,0.1-0.6,0.3-0.8,0.5
			c-0.2,0.2-0.3,0.4-0.4,0.6c-0.2,0.5-0.3,1-0.3,1.5c0,0.8,0.2,1.5,0.4,2.2c0.2,0.6,0.3,1.2,0.5,1.9c0.1,0.7,0.3,1.4,0.6,2.1
			c0.2,0.4,0.3,0.9,0.6,1.3c0.2,0.5,0.5,1,1,1.3c0.3,0.3,0.7,0.5,1.1,0.6c0.4,0.1,0.7,0.2,0.9,0.3c0.2,0.1,0.4,0.3,0.5,0.5
			c0.1,0.1,0.2,0.3,0.2,0.5c0.1,0.2,0.2,0.5,0.3,0.8c0.6,2.6,1,4.2,0.3,6.8c-0.3,1-0.7,2-1.2,2.9c-0.9,1.4-2,2.5-3.3,3.5
			c-5.6,4.3-12.8,5.3-19.2,8.1c-2.1,0.9-3.9,1.7-5.4,3c7.1,11.9,18.9,20.6,32.9,23.6c-1.9-11.3-4.2-26.1-4.1-28.2
			c0,0.1,0,0.3,0.1,0.4c0.4,1.9,1.1,3.7,2,5.4c0.3,0.5,2.6,3.7,2.6,3.7l3.5-6.1l1.8,4.8c-0.1,0.2-1.2,11.2-2.1,20.5
			c2.2,0.3,4.5,0.5,6.7,0.5c1,0,2.1,0,3.1-0.1C55,85.6,53.7,74,53.7,74l1.7-5.3c1.5,2.3,2.7,4.1,4,6.6c0,0,2-4.1,2.3-4.8
			c1.4-3,2.2-5.6,2.4-8.3l0.1,0c0.2,2-1.6,19.8-3.5,32.2c14.5-2.2,27-10.6,34.7-22.3c-0.1-0.3-0.3-0.5-0.5-0.7
			C94.2,70.6,92.7,70.3,91.3,69.8z M47.2,66.5l-2.4,5c0,0-1.7,3-1.7,3c-0.2,0.4-2.3-3.8-2.6-4.4c-0.9-1.7-1.6-3.5-2-5.4
			c-0.7-3.7-0.4-7.6,0.2-11.4c0.1-0.4,0.1-0.8,0.2-1.2c0,0.3-0.1,0.6,0,0.8c0.1,3.8,5.2,7.1,8.1,9l2,1.4L47.2,66.5z M64.1,59.8
			c0,0.1,0,0.3,0,0.4c0,0.2,0,0.4,0,0.6c0,0.3,0,0.6-0.1,0.9c0,0.2-0.1,0.5-0.1,0.7c0,0.3-0.1,0.5-0.1,0.8c0,0.3-0.1,0.5-0.2,0.8
			c-0.1,0.3-0.1,0.5-0.2,0.8c0,0,0,0,0,0c-0.1,0.2-0.1,0.5-0.2,0.7c-0.1,0.3-0.2,0.5-0.2,0.8c-0.1,0.2-0.2,0.5-0.3,0.7c0,0,0,0,0,0
			c-0.1,0.2-0.2,0.5-0.3,0.7c0,0.1-0.1,0.1-0.1,0.2c-0.1,0.2-0.1,0.3-0.2,0.5c-0.1,0.3-0.3,0.6-0.4,0.9c-0.3,0.7-2.3,5.4-2.3,5.4
			c-1.7-3.2-3.2-6.4-5.6-9.3l-1.6-1.9l0.7-0.4c2.4-0.8,5.2-3,7.2-5c0.1,0,0.1-0.1,0.2-0.2c0.6-0.5,1.1-1,1.6-1.6c0,0,0,0,0.1-0.1
			c0.2-0.3,0.5-0.7,0.7-1c0.2-0.3,0.3-0.7,0.5-1c0,0,0,0,0,0c0.1,0.2,0.2,0.4,0.3,0.6c0,0.1,0.1,0.1,0.1,0.2
			c0.1,0.1,0.1,0.2,0.2,0.3c0,0.4,0.1,0.8,0.1,1.1c0,0,0,0,0,0c0,0.3,0.1,0.6,0.1,0.9c0,0.2,0,0.4,0,0.6c0,0.1,0,0.3,0,0.4
			c0,0.3,0,0.6,0,0.9C64.1,59.3,64.1,59.6,64.1,59.8z"/>
	</g>
</g>
<g id="Layer_4" display="none">
	<g display="inline">
		<path fill="none" d="M70.6,75.1c0.1-0.4,0.2-0.7,0.3-1C70.8,74.4,70.7,74.7,70.6,75.1z"/>
		<path fill="none" d="M36.3,90.6L36.3,90.6c-0.3-0.5-0.5-0.9-0.8-1.4C35.7,89.7,36,90.1,36.3,90.6z"/>
		<path fill="none" d="M58.6,58.8c-0.6,0-1.1,0-1.7,0l0.5-1.4c0.7-2.2,1.1-4.2,1.1-6.1c1.4-2,2.4-4.5,2.9-7.6c0-0.1,0-0.1,0-0.1
			l0.2-1.4c0-1.7-0.2-3.5-0.5-5.4c-1.9-1.5-3.5-3.1-5.1-4.8c-1.5-1.7-2.9-3.5-4.2-5.4c-1-1.4-1.9-2.9-2.7-4.4c0-0.1-0.1-0.1-0.1-0.2
			c0,0.1,0,0.1,0,0.2c-0.4,3.5,0.4,6.9,2.3,10.1c-0.8-0.9-1.5-1.9-2.1-2.9c-1.2-2.1-2-4.3-2.4-6.8c0-0.2-0.1-0.3-0.1-0.5
			c-0.3,0-0.7,0-1,0.1c0,0,0,0-0.1,0c-1.3,0.3-2.5,1-3.5,2.1c-2.1,3.2-3.5,6.4-4.1,9.8l-0.5,2.4c-0.2,1.6-0.3,3.2-0.2,4.8
			c0.3,0.1,0.6,0,1-0.1l0.5,3.6c1,4.3,2.7,7.4,4.8,9.5l0.3,7.4c-0.2,0.6-0.5,1.1-0.8,1.5c-0.3,0.4-0.6,0.8-1,1.2
			c1.6,6.4,3.5,21.6,5.6,28.6c1.2,0.1,2.4,0.2,3.7,0.2l8.2-34.6C59.3,58.7,59,58.7,58.6,58.8z"/>
		<path fill="none" d="M66.6,91.3C66.6,91.3,66.6,91.3,66.6,91.3c1.6-3.3,2.9-11.8,4-16.3C69.6,79.6,68.2,88,66.6,91.3z"/>
		<polygon fill="none" points="18.2,79.7 18.2,79.7 18.7,73 		"/>
		<path fill="none" d="M59.2,92.9l-2.1,0.2C57.8,93.1,58.5,93,59.2,92.9z"/>
		<path d="M19.9,69c-1,1.6-1.8,5.6-2.4,9.9c0.2,0.2,0.5,0.5,0.7,0.7l0.5-6.7l-0.5,6.7c1.4,1.3,2.9,2.6,4.4,3.7
			c-0.8-5.9-1.3-13-1.7-15.8C20.6,68.1,20.2,68.5,19.9,69z"/>
		<path d="M79.4,64.5c-0.8-0.3-1.7-0.5-2.7-0.6l-8-3.3l-1-2.5l-1.8-1.3c0.4-0.3,0.9-0.5,1.3-0.8c2.9-2.3,4.2-6,4.1-11L70,35.7
			c-0.8-7-3-12.8-6.5-17.5c-2.8-4.9-6.3-6.7-10.4-5.7c-0.3,0.1-0.6,0.2-0.9,0.3c-1.1-0.8-2.4-1.2-3.6-1.1c-2.6,0.1-5.6,2-8.9,5.5
			c-3.8,4.5-6,11.5-6.8,20.8c0,0.1,0,0.2,0,0.4c0,0,0,0,0,0.1c-0.1,3.5,1.9,9.5,6.2,18c0,0.1,0.1,0.2,0.1,0.3l-1.5,1.1l-3.5,2.5
			l-1,1.8l-2,0.9l-10.2,4.6c0.4,2.8,0.9,9.9,1.7,15.8c4.1,3.1,8.7,5.5,13.6,7.2c-0.3-0.5-0.5-0.9-0.8-1.4c0.2,0.5,0.5,0.9,0.8,1.4
			c3.7,1.3,7.5,2.1,11.5,2.5c-2.1-7-3.9-22.2-5.6-28.6c0.4-0.3,0.7-0.7,1-1.2c0.3-0.4,0.5-0.9,0.8-1.5l-0.3-7.4
			c-2.2-2.1-3.8-5.3-4.8-9.5l-0.5-3.6c-0.4,0.2-0.7,0.2-1,0.1c-0.1-1.6-0.1-3.2,0.2-4.8l0.5-2.4c0.6-3.3,2-6.5,4.1-9.8
			c1-1.1,2.2-1.8,3.5-2.1c0,0,0,0,0.1,0c0.3-0.1,0.7-0.1,1-0.1c0,0.2,0,0.3,0.1,0.5c0.4,2.4,1.2,4.7,2.4,6.8c0.6,1,1.3,2,2.1,2.9
			c-1.9-3.3-2.6-6.6-2.3-10.1c0-0.1,0-0.1,0-0.2c0,0.1,0.1,0.1,0.1,0.2c0.8,1.5,1.8,3,2.7,4.4c1.3,2,2.7,3.8,4.2,5.4
			c1.6,1.7,3.2,3.3,5.1,4.8c0.4,1.8,0.5,3.6,0.5,5.4l-0.2,1.4c0,0,0,0.1,0,0.1c-0.5,3-1.4,5.5-2.9,7.6c0,1.9-0.4,3.9-1.1,6.1
			l-0.5,1.4c0.6,0,1.2,0,1.7,0c0.4,0,0.7,0,1.1-0.1l-8.2,34.6c0.4,0,0.8,0,1.2,0c1.5,0,3-0.1,4.5-0.2l2.1-0.2
			c2.6-0.3,5.1-0.9,7.5-1.6c1.6-3.3,2.9-11.8,4-16.3c0.1-0.4,0.2-0.7,0.3-1c0.1-0.5,0.2-0.8,0.4-1.2c-0.1,0.3-0.2,0.7-0.4,1.2
			c-0.1,0.3-0.2,0.6-0.3,1c-1.1,4.5-2.4,12.9-4,16.3c8-2.3,15.1-6.6,20.9-12.2C85.2,72.7,81.7,65.3,79.4,64.5z M33.6,85
			c0.6,1.4,1.2,2.8,1.9,4.2C34.8,87.8,34.1,86.5,33.6,85z"/>
	</g>
</g>
<g id="Layer_5" display="none">
	<circle display="inline" fill="none" stroke="#000000" stroke-width="2" stroke-miterlimit="10" cx="52.5" cy="52.5" r="50"/>
	<g display="inline">
		<defs>
			<circle id="SVGID_5_" cx="52.5" cy="52.5" r="50"/>
		</defs>
		<clipPath id="SVGID_6_">
			<use xlink:href="#SVGID_5_"  overflow="visible"/>
		</clipPath>
		<g clip-path="url(#SVGID_6_)">
			<g>
				<g>
					<path d="M118.3,113.9c0.9,0,1.7,0,2.6-0.2c2.3-0.3,4.7-1.3,5.9-3.4c0.5-0.8,0.8-1.8,0.9-2.7c0.1-0.5,0.1-1,0.1-1.5
						c0-0.7-0.4-1.1-0.6-1.8c-0.2-0.5-0.1-1-0.4-1.4c-0.4-0.4-1.1-0.5-1.6-0.4c-1.3,0.2-2.9,0.4-3.2,0.5c-1.7,0.7-3.3,2-4.7,3.2
						C114.8,108.5,113.7,113.9,118.3,113.9z"/>
				</g>
				<g>
					<path d="M51.9,98.8c-0.6-2-1.2-4-1.8-6c-2.4-7.7-4.8-15.5-7.1-23.2c0.1,0.3-4.7,3.3-5.2,3.5c-3.2,1.3-5.5,1.4-8.9,2.2
						c-2.8,0.7-6.6,1.6-8.4,4c-2,2.7-0.8,29.5-0.7,44.8c0,5.8,3.4,10.4,9.2,10.4h0.8h22.8V98.8H51.9z"/>
					<path d="M115.2,105.6l-21.5,12l-7.1-27.8c-0.4-3.7-0.5-7.5-2.7-10.4c-1.8-2.4-5.6-3.3-8.4-4c-3.3-0.9-5.6-1-8.9-2.2
						c-0.6-0.2-5.3-3.2-5.2-3.5c-2.4,7.7-4.8,15.5-7.1,23.2c-0.6,2-1.2,4-1.8,6h0v35.7h15.9c3.7,0,7.4-3,7.5-6.7l-0.1-20.6
						c3.9,10.3,8.5,25.5,12.2,25.3c6-0.3,31.5-16.2,31.5-16.2L115.2,105.6z"/>
				</g>
				<path d="M123,106.3c0-0.1,1.7-0.9,1.8-0.9c0.5-0.1,1.6,0.5,2,0c0.5-0.5,0.1-1,0.8-1.4c0.4-0.2,0.9-0.4,1.3-0.7c1-0.5,2-1,3-1.5
					c2.4-1.2,4.7-2.4,7.1-3.6c5.1-2.6,10.2-5.1,15.3-7.6c3.6-1.8,7.2-3.6,10.9-5.2c0.5-0.2,0.9-0.4,1.4-0.6c0.7-0.3,1.5,0.4,0.8,0.7
					c-5.8,3.1-38.2,19.7-42.6,22.6c-0.7,0.4-1.5,0.4-2.3,0.5C122.8,108.6,123,106.3,123,106.3z"/>
			</g>
			<g>
				<g>
					<g>
						<path d="M39.6,30.2c0.2-0.2,0.5-0.5,0.7-0.7C40.1,29.7,39.9,29.9,39.6,30.2z"/>
						<path d="M68.7,43.6c-0.1-1.1-0.2-2.3-0.3-3.4c-1.3-9.6-9.5-17.7-19.8-15.8c-2.6,0.5-6.4,1.2-7.6,4c-4.6-0.4-6.6,6.4-7.2,9.9
							c-0.1,0.7-0.2,1.4-0.3,2.2c-0.4,3.3-0.2,6.7,0,10.1c0.2,3,0.8,6.4,2.4,9c1.3,2,3.2,4.9,5.4,6c4.4,2.4,9.2,2.1,14,1.4
							c2.4-0.4,4.8-0.5,6.9-1.9c2.6-1.8,3.9-3.6,4.7-6.7C68.2,53.6,68.9,48.6,68.7,43.6z"/>
					</g>
					<g>
						<g>
							<path d="M43.5,67c-0.7,3.4,8.2,10,8.2,10l6-3L43.5,59.6C43.5,59.6,44.2,63.5,43.5,67z"/>
							<path d="M60.1,58.1c0.6-4.1-16.6,1.5-16.6,1.5l14.9,15.3l3-6.7C61.4,68.1,59.3,63.5,60.1,58.1z"/>
						</g>
						<path d="M60.3,58c0.9-1.2,1.1-2.6,1.2-4c0.1-0.6,0.7-0.8,1.2-1.1c1.1-0.7,1.3-1.4,1.6-3c0.5-2.7,1.1-3.6-1.7-4.5
							c-5.2-1.7-11.6-3.6-16.2-6.8c-1-0.7-4.9-2.5-4.8-3.9c-0.3,2.8-1.8,4.7-3.2,7c0,0,0,0,0,0c-0.4,1-0.9,1.7-1.4,2.5
							c-0.4,0.7-0.8,1.5-1,2.1c-0.1,0.5-0.1,1-0.1,1.5c0.1,0.8,0.7,4.9,2.5,5c0.4,0,0.7,0.5,0.7,1c0.6,3.3,2.8,5.5,5.2,7.7
							c0.2,0.1,0.3,0.3,0.5,0.4c1.9,1.7,3.8,2.5,5.6,2.3c1.9,0.1,3.7-0.6,5.6-2.3c0.4-0.3,0.7-0.6,1.1-0.9
							C58.5,60.1,59.5,59.1,60.3,58z"/>
					</g>
				</g>
				<g>
					<path d="M60.1,81.8c-1.9-2.4-4.6-5-7.8-5.8c-3.1,0.8-5.9,3.4-7.8,5.8c-0.3,0.3-0.3,0.8-0.2,1.2l7.7,18.1
						c0.1,0.1,0.1,0.3,0.2,0.4c0.1-0.1,0.2-0.2,0.2-0.4L60.2,83C60.4,82.6,60.3,82.2,60.1,81.8z"/>
					<path d="M56.4,94.1l-2.7-12.2c-0.1-0.4,0-0.8,0.2-1.1l1-1.9c0-0.1,0-0.2-0.1-0.3c-0.4-0.4-0.8-0.8-1.2-1.2
						c-0.3-0.3-0.6-0.5-0.7-0.9c-0.1-0.2-0.4-0.8-0.8-0.6c-0.3,0.2-0.4,0.5-0.6,0.8c-0.2,0.3-0.5,0.5-0.8,0.7
						c-0.4,0.3-0.7,0.7-1.1,1c-0.1,0.1-0.1,0.2-0.1,0.3l1,1.9c0.2,0.4,0.2,0.8,0.2,1.1l-2.7,12.2c0,0.1,0,0.1,0,0.2l3.7,9.6
						c0.1,0.2,0.2,0.2,0.4,0.2c0.1,0.1,0.3,0,0.4-0.2l3.7-9.6C56.5,94.2,56.5,94.1,56.4,94.1z"/>
					<path d="M63.2,72.9l-2-5.8l-1.6,2.9c-1.8,2.6-5.8,5.2-7.2,5.2c-1.4,0-5.2-2.5-7.2-5.2l-1.6-2.9l-2,5.8c0,0.1,0,0.2,0,0.3
						l3.7,11.9c0.1,0.3,0.6,2.1,0.8,0.1l2.1-3.6c0.2-0.4,0.5-0.8,0.8-1.2l3.5-4.4l3.5,4.4c0.3,0.4,0.6,0.8,0.8,1.2l2.1,3.6
						c0.2,2,0.7,0.2,0.8-0.1l3.7-11.9C63.2,73.1,63.2,73,63.2,72.9z"/>
					<path d="M62.7,80.1l4.6,0.5c-0.5-1.5-1.5-8.7-2.9-9.4l-2.6-2.1l-5.6,16.6l-3.9,13l-3.9-13l-5.6-16.6l-2.6,2.1
						c-1.4,0.7-2.4,7.9-2.9,9.4l4.6-0.5c0,0-3.4,6.1-3.4,6.1c-0.3,0.5,12.6,18.1,13.8,22.2c1.8-4.6,14.1-21.7,13.8-22.2
						C66.1,86.2,62.7,80.1,62.7,80.1z"/>
					<polygon points="31.5,107.8 31.5,134.5 33.3,134.5 					"/>
					<polygon points="51,105.6 51.3,134.5 53.2,134.5 52.7,103.8 					"/>
				</g>
				<path d="M65,46.6l-0.4-1.1L61.9,46c-0.1-0.2-0.2-0.4-0.4-0.5C60.7,44.5,59,44,57,44c-2,0-4.4,0.6-5.4,1.8l0-0.1
					c-0.6,0.3-1,0.4-1.4,0.4c-0.4,0-0.9-0.1-1.4-0.4l0,0.1c-1-1.2-3.4-1.8-5.4-1.8c-2,0-3.7,0.5-4.6,1.5c-0.1,0.2-0.3,0.3-0.4,0.5
					l-2.3-0.4l-0.2,1.1l2.2,0.4c0,0.2,0,0.4,0,0.5c0.2,2.7,2.8,4.2,5.3,4.2c0.1,0,0.1,0,0.2,0c0.5,0,0.9-0.1,1.4-0.2
					c1.9-0.5,3.4-1.8,4.1-3.7c0.1-0.3,0.2-0.5,0.2-0.8c0.4,0.1,0.7,0.1,1,0.1c0.3,0,0.6,0,1-0.1c0,0.2,0.1,0.5,0.2,0.8
					c0.7,1.9,2.2,3.2,4.1,3.7c0.4,0.1,0.9,0.2,1.4,0.2c0.1,0,0.1,0,0.2,0c2.5,0,5.1-1.4,5.3-4.2c0-0.2,0-0.4,0-0.5L65,46.6z
					 M48,47.5c-0.6,1.5-1.8,2.6-3.3,3c-0.4,0.1-0.7,0.1-1.1,0.2l-0.2,0c-2,0-4.1-1.1-4.2-3.1c0-0.5,0.1-0.9,0.4-1.3
					c0.7-0.7,2.1-1.1,3.8-1.1c2.1,0,4,0.6,4.6,1.5C48.1,46.9,48.1,47.1,48,47.5z M56.9,50.7l-0.2,0c-0.4,0-0.8-0.1-1.1-0.2
					c-1.5-0.4-2.7-1.5-3.3-3c-0.1-0.3-0.1-0.6,0.1-0.9c0.6-0.9,2.5-1.5,4.6-1.5c1.7,0,3.1,0.4,3.8,1.1c0.3,0.4,0.5,0.8,0.4,1.3
					C61,49.6,58.9,50.7,56.9,50.7z"/>
			</g>
		</g>
	</g>
</g>
<g id="Layer_6" display="none">
	<g display="inline">
		<defs>
			<circle id="SVGID_7_" cx="52.5" cy="52.5" r="50"/>
		</defs>
		<clipPath id="SVGID_8_">
			<use xlink:href="#SVGID_7_"  overflow="visible"/>
		</clipPath>
		<g clip-path="url(#SVGID_8_)">
			<g>
				<g>
					<path d="M68.7,46.3c0-0.6-0.4-1.6-1.2-1c-0.4,0.3-0.2,0.9-0.5,1.1c-0.9,0.5-0.9-0.7-1-1.2c-0.2-2,0.7-3.9,0.5-5.9
						c-0.4-2.7-3.9-6.2-6.4-7.1c-2.5-0.9-5.9-0.9-8.5-0.1c-2.6-0.9-6-0.9-8.5,0.1c-2.6,0.9-4.5,4.4-4.9,7.1c-0.3,2,0.7,3.9,0.5,5.9
						c-0.1,0.5-0.1,1.7-1,1.2c-0.4-0.2-0.2-0.9-0.6-1.1c-1.5-1-1.1,1.9-1,2.4c0.6,2,1.4,4.4,3.3,5.7c0.6,0.4,1.8,0.6,2.1,0.9
						c0.9,0.9,2.2,5.9,2.1,7.1l-0.3,8L53.3,78l3.2-3.4l5.5-5.5c0-4.6-2-10.3,1.9-14C67,52.1,68.9,50.7,68.7,46.3z"/>
				</g>
				<g>
					<path d="M36.1,43.4c0.2,1,0.5,2.1,0.6,3.3c0.5,3.3,3.5,5.3,5,8.2c0.7,1.4,2.3,2.9,2.6,4.4c2.3-0.7,0.9-1.2,2.8,0.4
						c1.2,1,5.1,0.9,6.5,0.4c0.9-0.3,1.3-1.2,2.3-1.4c1-0.1,2,0.7,3.1,0.6c-0.2,0,2.1-0.4,1.7-0.3c3-1.2,5.4-6.1,6.4-8.7
						c0.7-1.8,1.9-3.2,2.6-4.9c0.7-1.7,0.6-3.8,0.9-5.6c1.2-8.3,0.2-16.5-11.1-18.2c-5.2-0.8-11.2-1.1-16.2,0.8
						c-4.2,1.6-6.8,5.6-8.2,9.4C33.7,35.6,35.3,40.1,36.1,43.4z"/>
				</g>
			</g>
			<g>
				<g>
					<path d="M61.9,61.6l-6.5,1.1c-2.1,0.4-4.3,0.4-6.4,0l-5.9-1.1l-2,5.6l4,12.3h15l4-12.3L61.9,61.6z"/>
				</g>
				<g>
					<path d="M89.6,94.1c-4.5,4.3-12.8,7.2-20.5,9.1c-5,1.2-9.7,2-13,2.4c-2.4,0.3-4.7,0.3-7.1,0c-7.9-1.1-26.1-4.3-33.6-11.5
						c-2.9-2.8-3.6-7-1.8-10.5c2.1-4.1,5.6-10.8,5.9-11c0.3-0.2,10.6-3.1,17.2-5c2.5-0.7,4.4-1.2,5.1-1.4c0.2-0.1,0.3-0.1,0.3-0.1
						h20.7c0,0,0.1,0,0.3,0.1c0.7,0.2,2.7,0.8,5.1,1.4c6.6,1.9,16.9,4.8,17.2,5c0.3,0.2,3.8,6.9,5.9,11
						C93.2,87.1,92.5,91.3,89.6,94.1z"/>
				</g>
			</g>
		</g>
	</g>
	<circle display="inline" fill="none" stroke="#000000" stroke-width="2" stroke-miterlimit="10" cx="52" cy="52.5" r="50"/>
</g>
<g id="Layer_7" display="none">
	<g display="inline">
		<g>
			<g>
				<path d="M68.7,35.4c0-0.6-0.4-1.6-1.2-1c-0.4,0.3-0.2,0.9-0.5,1.1c-0.9,0.5-0.9-0.7-1-1.2c-0.2-2,0.7-3.9,0.5-5.9
					c-0.4-2.7-3.9-6.2-6.4-7.1c-2.5-0.9-5.9-0.9-8.5-0.1c-2.6-0.9-6-0.9-8.5,0.1c-2.6,0.9-4.5,4.4-4.9,7.1c-0.3,2,0.7,3.9,0.5,5.9
					c-0.1,0.5-0.1,1.7-1,1.2c-0.4-0.2-0.2-0.9-0.6-1.1c-1.5-1-1.1,1.9-1,2.4c0.6,2,1.4,4.4,3.3,5.7c0.6,0.4,1.8,0.6,2.1,0.9
					c0.9,0.9,2.2,5.9,2.1,7.1l-0.3,8l10.1,8.7l3.2-3.4l5.5-5.5c0-4.6-2-10.3,1.9-14C67,41.2,68.9,39.9,68.7,35.4z"/>
			</g>
			<g>
				<path d="M36.1,32.5c0.2,1,0.5,2.1,0.6,3.3c0.5,3.3,3.5,5.3,5,8.2c0.7,1.4,2.3,2.9,2.6,4.4c2.3-0.7,0.9-1.2,2.8,0.4
					c1.2,1,5.1,0.9,6.5,0.4c0.9-0.3,1.3-1.2,2.3-1.4c1-0.1,2,0.7,3.1,0.6c-0.2,0,2.1-0.4,1.7-0.3c3-1.2,5.4-6.1,6.4-8.7
					c0.7-1.8,1.9-3.2,2.6-4.9c0.7-1.7,0.6-3.8,0.9-5.6c1.2-8.3,0.2-16.5-11.1-18.2c-5.2-0.8-11.2-1.1-16.2,0.8
					c-4.2,1.6-6.8,5.6-8.2,9.4C33.7,24.7,35.3,29.2,36.1,32.5z"/>
			</g>
		</g>
		<g>
			<g>
				<path d="M61.9,50.7l-6.5,1.1c-2.1,0.4-4.3,0.4-6.4,0l-5.9-1.1l-2,5.6l4,12.3h15l4-12.3L61.9,50.7z"/>
			</g>
			<g>
				<path d="M89.6,83.2c-4.5,4.3-12.8,7.2-20.5,9.1c-5,1.2-9.7,2-13,2.4c-2.4,0.3-4.7,0.3-7.1,0c-7.9-1.1-26.1-4.3-33.6-11.5
					c-2.9-2.8-3.6-7-1.8-10.5c2.1-4.1,5.6-10.8,5.9-11c0.3-0.2,10.6-3.1,17.2-5c2.5-0.7,4.4-1.2,5.1-1.4c0.2-0.1,0.3-0.1,0.3-0.1
					h20.7c0,0,0.1,0,0.3,0.1c0.7,0.2,2.7,0.8,5.1,1.4c6.6,1.9,16.9,4.8,17.2,5c0.3,0.2,3.8,6.9,5.9,11
					C93.2,76.2,92.5,80.4,89.6,83.2z"/>
			</g>
		</g>
	</g>
</g>
<g id="Layer_8" display="none">
	<path display="inline" d="M62.9,94.5c0.1,0,0.3,0,0.4-0.1c0.2,0,0.4,0,0.5-0.1c7.8-1,16-2.8,24.5-5.8l-2-13.2
		c-0.4-3.7-0.5-7.5-2.7-10.4c-1.8-2.4-5.6-3.3-8.4-4c-3.3-0.9-5.6-1-8.9-2.2c-0.2-0.1-0.8-0.4-1.5-0.9c-0.2-0.5-0.5-0.9-0.7-1
		l-2.6-2.1l-0.7-2l-0.1,0.1c-0.1-0.4-0.3-0.8-0.4-1.4c0.5-0.2,1.1-0.5,1.6-0.9c2.6-1.8,3.9-3.6,4.7-6.7c1.3-4.8,2-9.8,1.8-14.8
		c-0.1-1.1-0.2-2.3-0.3-3.4C66.9,16.2,58.7,8.1,48.4,10c-2.6,0.5-6.4,1.2-7.6,4c-4.6-0.4-6.6,6.4-7.2,9.9c-0.1,0.7-0.2,1.4-0.3,2.2
		c-0.4,3.3-0.2,6.7,0,10.1c0.2,3,0.8,6.4,2.4,9c1.3,2,3.2,4.9,5.4,6c0.7,0.4,1.5,0.7,2.3,1c0,0.1,0,0.3-0.1,0.4c0,0.1,0,0.1,0,0.2
		l0,0l-0.7,2l-2.6,2.1c-0.2,0.1-0.4,0.4-0.6,0.8c-0.9,0.6-1.7,1-1.9,1.1c-3.2,1.3-5.5,1.4-8.9,2.2c-2.8,0.7-6.6,1.6-8.4,4
		c-1.2,1.7-3.4,13.2-4.7,25.2c4.6,1.4,10.4,2.7,15.4,3.7v-0.1c0.1,0,0.2,0,0.2,0l0.1,0.1c1.3,0.2,2.6,0.4,4,0.6
		C41.3,95.2,51.1,95.9,62.9,94.5z M41.3,58.5l1-2.8l0,0L41.3,58.5c0,0.1,0,0.2,0,0.3l2.4,7.8l0,0l-2.4-7.8
		C41.3,58.7,41.3,58.6,41.3,58.5z M40.9,67.3c0.5-0.9,0.9-1.6,0.9-1.6S41.4,66.4,40.9,67.3L40.9,67.3z"/>
</g>
</svg>
