<svg xmlns="http://www.w3.org/2000/svg" viewBox="0 0 42.88 38.15"><defs><style>.cls-1{fill:none;}.cls-2{fill:#fff;}</style></defs><title>Video Stream</title><g id="Layer_2" data-name="Layer 2"><g id="Layer_1-2" data-name="Layer 1"><rect class="cls-1" x="2.63" y="2.63" width="37.62" height="24.34" rx="2.63" ry="2.63"/><path class="cls-1" d="M14.17,31H4.83v2.88h9.85A2.63,2.63,0,0,1,14.17,31Z"/><path class="cls-1" d="M19.25,32.09a2.64,2.64,0,0,1-.73,1.82H37V31H19A2.64,2.64,0,0,1,19.25,32.09Z"/><rect class="cls-1" x="2.63" y="2.63" width="37.62" height="24.34" rx="2.63" ry="2.63"/><path class="cls-2" d="M37.62,0H5.26A5.26,5.26,0,0,0,0,5.26V32.89a5.26,5.26,0,0,0,5.26,5.26H37.62a5.26,5.26,0,0,0,5.26-5.26V5.26A5.26,5.26,0,0,0,37.62,0ZM37,33.91H18.52a2.63,2.63,0,0,1-3.84,0H4.83V31h9.34A2.65,2.65,0,0,1,19,31H37Zm3.23-9.57A2.63,2.63,0,0,1,37.62,27H5.26a2.63,2.63,0,0,1-2.63-2.63V5.26A2.63,2.63,0,0,1,5.26,2.63H37.62a2.63,2.63,0,0,1,2.63,2.63Z"/><circle class="cls-2" cx="16.6" cy="32.09" r="1.21"/><polygon class="cls-2" points="18.78 20.34 18.78 7.91 27 14.12 27 14.12 18.78 20.34"/></g></g></svg>